<svg xmlns="http://www.w3.org/2000/svg" width="804" height="556" viewBox="0 0 804 556">
<rect x="0" y="0" width="100%" height="100%" fill="white"/>
<text x="402.0" y="36" text-anchor="middle" font-family="Arial, sans-serif" font-size="20">Leeds contexGD by Match (Opponent-Adjusted)</text>
<line x1="92" y1="56" x2="92" y2="476" stroke="#333" stroke-width="1"/>
<line x1="92" y1="476" x2="788" y2="476" stroke="#333" stroke-width="1"/>
<line x1="92" y1="98.00" x2="788" y2="98.00" stroke="#cfcfcf" stroke-width="1" stroke-dasharray="3,3"/>
<line x1="92" y1="182.00" x2="788" y2="182.00" stroke="#cfcfcf" stroke-width="1" stroke-dasharray="3,3"/>
<line x1="92" y1="266.00" x2="788" y2="266.00" stroke="#666" stroke-width="1" stroke-dasharray="3,3"/>
<line x1="92" y1="350.00" x2="788" y2="350.00" stroke="#cfcfcf" stroke-width="1" stroke-dasharray="3,3"/>
<line x1="92" y1="434.00" x2="788" y2="434.00" stroke="#cfcfcf" stroke-width="1" stroke-dasharray="3,3"/>
<line x1="88" y1="476.00" x2="92" y2="476.00" stroke="#333" stroke-width="1"/>
<text x="86" y="479.00" text-anchor="end" font-family="Arial, sans-serif" font-size="11">-2.5</text>
<line x1="88" y1="434.00" x2="92" y2="434.00" stroke="#333" stroke-width="1"/>
<text x="86" y="437.00" text-anchor="end" font-family="Arial, sans-serif" font-size="11">-2.0</text>
<line x1="88" y1="392.00" x2="92" y2="392.00" stroke="#333" stroke-width="1"/>
<text x="86" y="395.00" text-anchor="end" font-family="Arial, sans-serif" font-size="11">-1.5</text>
<line x1="88" y1="350.00" x2="92" y2="350.00" stroke="#333" stroke-width="1"/>
<text x="86" y="353.00" text-anchor="end" font-family="Arial, sans-serif" font-size="11">-1.0</text>
<line x1="88" y1="308.00" x2="92" y2="308.00" stroke="#333" stroke-width="1"/>
<text x="86" y="311.00" text-anchor="end" font-family="Arial, sans-serif" font-size="11">-0.5</text>
<line x1="88" y1="266.00" x2="92" y2="266.00" stroke="#333" stroke-width="1"/>
<text x="86" y="269.00" text-anchor="end" font-family="Arial, sans-serif" font-size="11">0</text>
<line x1="88" y1="224.00" x2="92" y2="224.00" stroke="#333" stroke-width="1"/>
<text x="86" y="227.00" text-anchor="end" font-family="Arial, sans-serif" font-size="11">0.5</text>
<line x1="88" y1="182.00" x2="92" y2="182.00" stroke="#333" stroke-width="1"/>
<text x="86" y="185.00" text-anchor="end" font-family="Arial, sans-serif" font-size="11">1.0</text>
<line x1="88" y1="140.00" x2="92" y2="140.00" stroke="#333" stroke-width="1"/>
<text x="86" y="143.00" text-anchor="end" font-family="Arial, sans-serif" font-size="11">1.5</text>
<line x1="88" y1="98.00" x2="92" y2="98.00" stroke="#333" stroke-width="1"/>
<text x="86" y="101.00" text-anchor="end" font-family="Arial, sans-serif" font-size="11">2.0</text>
<line x1="88" y1="56.00" x2="92" y2="56.00" stroke="#333" stroke-width="1"/>
<text x="86" y="59.00" text-anchor="end" font-family="Arial, sans-serif" font-size="11">2.5</text>
<rect x="92" y="235.73" width="20" height="30.27" fill="#2f855a"/>
<rect x="116" y="266.00" width="20" height="69.10" fill="#c53030"/>
<rect x="140" y="266.00" width="20" height="3.23" fill="#c53030"/>
<rect x="164" y="243.45" width="20" height="22.55" fill="#2f855a"/>
<rect x="188" y="266.00" width="20" height="71.69" fill="#c53030"/>
<rect x="212" y="266.00" width="20" height="16.46" fill="#c53030"/>
<rect x="236" y="266.00" width="20" height="38.10" fill="#c53030"/>
<rect x="260" y="266.00" width="20" height="2.59" fill="#c53030"/>
<rect x="284" y="266.00" width="20" height="21.32" fill="#c53030"/>
<rect x="308" y="266.00" width="20" height="108.55" fill="#c53030"/>
<rect x="332" y="266.00" width="20" height="45.38" fill="#c53030"/>
<rect x="356" y="259.44" width="20" height="6.56" fill="#2f855a"/>
<rect x="380" y="238.96" width="20" height="27.04" fill="#2f855a"/>
<rect x="404" y="225.39" width="20" height="40.61" fill="#2f855a"/>
<rect x="428" y="266.00" width="20" height="41.28" fill="#c53030"/>
<rect x="452" y="216.25" width="20" height="49.75" fill="#2f855a"/>
<rect x="476" y="189.44" width="20" height="76.56" fill="#2f855a"/>
<rect x="500" y="204.91" width="20" height="61.09" fill="#2f855a"/>
<rect x="524" y="266.00" width="20" height="32.73" fill="#c53030"/>
<rect x="548" y="253.49" width="20" height="12.51" fill="#2f855a"/>
<rect x="572" y="254.13" width="20" height="11.87" fill="#2f855a"/>
<rect x="596" y="240.71" width="20" height="25.29" fill="#2f855a"/>
<rect x="620" y="211.94" width="20" height="54.06" fill="#2f855a"/>
<rect x="644" y="266.00" width="20" height="60.36" fill="#c53030"/>
<rect x="668" y="192.68" width="20" height="73.32" fill="#2f855a"/>
<rect x="692" y="266.00" width="20" height="89.85" fill="#c53030"/>
<rect x="716" y="259.91" width="20" height="6.09" fill="#2f855a"/>
<rect x="740" y="266.00" width="20" height="9.20" fill="#c53030"/>
<rect x="764" y="266.00" width="20" height="2.18" fill="#c53030"/>
<polyline points="102.00,235.73 126.00,285.41 150.00,280.02 174.00,270.88 198.00,284.24 222.00,283.94 246.00,286.82 270.00,284.54 294.00,284.85 318.00,293.82 342.00,301.39 366.00,293.82 390.00,290.79 414.00,288.99 438.00,285.95 462.00,279.32 486.00,267.86 510.00,261.49 534.00,262.63 558.00,250.53 582.00,244.80 606.00,242.93 630.00,240.23 654.00,250.32 678.00,238.86 702.00,252.82 726.00,259.87 750.00,266.90 774.00,263.84" fill="none" stroke="black" stroke-width="3"/>
<line x1="568" y1="76" x2="604" y2="76" stroke="black" stroke-width="3"/>
<text x="612" y="80" font-family="Arial, sans-serif" font-size="12">10-match rolling average</text>
<line x1="102.00" y1="476" x2="102.00" y2="480" stroke="#333" stroke-width="1"/>
<text x="102.00" y="490" text-anchor="middle" font-family="Arial, sans-serif" font-size="11">1</text>
<line x1="318.00" y1="476" x2="318.00" y2="480" stroke="#333" stroke-width="1"/>
<text x="318.00" y="490" text-anchor="middle" font-family="Arial, sans-serif" font-size="11">10</text>
<line x1="558.00" y1="476" x2="558.00" y2="480" stroke="#333" stroke-width="1"/>
<text x="558.00" y="490" text-anchor="middle" font-family="Arial, sans-serif" font-size="11">20</text>
<text x="440.0" y="506" text-anchor="middle" font-family="Arial, sans-serif" font-size="14">Match</text>
<text x="64" y="278.0" transform="rotate(-90 68 278.0)" text-anchor="middle" font-family="Arial, sans-serif" font-size="14">contexGD</text>
</svg>