<svg xmlns="http://www.w3.org/2000/svg" width="780" height="556" viewBox="0 0 780 556">
<rect x="0" y="0" width="100%" height="100%" fill="white"/>
<text x="390.0" y="36" text-anchor="middle" font-family="Arial, sans-serif" font-size="20">Nottingham Forest contexGD by Match (Opponent-Adjusted)</text>
<line x1="92" y1="56" x2="92" y2="476" stroke="#333" stroke-width="1"/>
<line x1="92" y1="476" x2="764" y2="476" stroke="#333" stroke-width="1"/>
<line x1="92" y1="266.00" x2="764" y2="266.00" stroke="#666" stroke-width="1" stroke-dasharray="3,3"/>
<line x1="88" y1="476.00" x2="92" y2="476.00" stroke="#333" stroke-width="1"/>
<text x="86" y="479.00" text-anchor="end" font-family="Arial, sans-serif" font-size="11">-2.0</text>
<line x1="88" y1="423.50" x2="92" y2="423.50" stroke="#333" stroke-width="1"/>
<text x="86" y="426.50" text-anchor="end" font-family="Arial, sans-serif" font-size="11">-1.5</text>
<line x1="88" y1="371.00" x2="92" y2="371.00" stroke="#333" stroke-width="1"/>
<text x="86" y="374.00" text-anchor="end" font-family="Arial, sans-serif" font-size="11">-1.0</text>
<line x1="88" y1="318.50" x2="92" y2="318.50" stroke="#333" stroke-width="1"/>
<text x="86" y="321.50" text-anchor="end" font-family="Arial, sans-serif" font-size="11">-0.5</text>
<line x1="88" y1="266.00" x2="92" y2="266.00" stroke="#333" stroke-width="1"/>
<text x="86" y="269.00" text-anchor="end" font-family="Arial, sans-serif" font-size="11">0</text>
<line x1="88" y1="213.50" x2="92" y2="213.50" stroke="#333" stroke-width="1"/>
<text x="86" y="216.50" text-anchor="end" font-family="Arial, sans-serif" font-size="11">0.5</text>
<line x1="88" y1="161.00" x2="92" y2="161.00" stroke="#333" stroke-width="1"/>
<text x="86" y="164.00" text-anchor="end" font-family="Arial, sans-serif" font-size="11">1.0</text>
<line x1="88" y1="108.50" x2="92" y2="108.50" stroke="#333" stroke-width="1"/>
<text x="86" y="111.50" text-anchor="end" font-family="Arial, sans-serif" font-size="11">1.5</text>
<line x1="88" y1="56.00" x2="92" y2="56.00" stroke="#333" stroke-width="1"/>
<text x="86" y="59.00" text-anchor="end" font-family="Arial, sans-serif" font-size="11">2.0</text>
<rect x="92" y="176.83" width="20" height="89.17" fill="#2f855a"/>
<rect x="116" y="243.60" width="20" height="22.40" fill="#2f855a"/>
<rect x="140" y="266.00" width="20" height="109.76" fill="#c53030"/>
<rect x="164" y="266.00" width="20" height="51.32" fill="#c53030"/>
<rect x="188" y="266.00" width="20" height="9.53" fill="#c53030"/>
<rect x="212" y="266.00" width="20" height="47.77" fill="#c53030"/>
<rect x="236" y="266.00" width="20" height="130.17" fill="#c53030"/>
<rect x="260" y="266.00" width="20" height="40.64" fill="#c53030"/>
<rect x="284" y="266.00" width="20" height="54.47" fill="#c53030"/>
<rect x="308" y="231.40" width="20" height="34.60" fill="#2f855a"/>
<rect x="332" y="263.66" width="20" height="2.34" fill="#2f855a"/>
<rect x="356" y="238.07" width="20" height="27.93" fill="#2f855a"/>
<rect x="380" y="266.00" width="20" height="106.00" fill="#c53030"/>
<rect x="404" y="261.40" width="20" height="4.60" fill="#2f855a"/>
<rect x="428" y="266.00" width="20" height="124.98" fill="#c53030"/>
<rect x="452" y="266.00" width="20" height="1.57" fill="#c53030"/>
<rect x="476" y="257.20" width="20" height="8.80" fill="#2f855a"/>
<rect x="500" y="266.00" width="20" height="61.31" fill="#c53030"/>
<rect x="524" y="266.00" width="20" height="7.02" fill="#c53030"/>
<rect x="548" y="266.00" width="20" height="151.66" fill="#c53030"/>
<rect x="572" y="266.00" width="20" height="80.02" fill="#c53030"/>
<rect x="596" y="266.00" width="20" height="67.22" fill="#c53030"/>
<rect x="620" y="259.26" width="20" height="6.74" fill="#2f855a"/>
<rect x="644" y="266.00" width="20" height="29.14" fill="#c53030"/>
<rect x="668" y="266.00" width="20" height="146.11" fill="#c53030"/>
<rect x="692" y="174.33" width="20" height="91.67" fill="#2f855a"/>
<rect x="716" y="254.31" width="20" height="11.69" fill="#2f855a"/>
<rect x="740" y="266.00" width="20" height="103.80" fill="#c53030"/>
<polyline points="102.00,176.83 126.00,210.22 150.00,265.40 174.00,278.38 198.00,277.81 222.00,305.20 246.00,335.71 270.00,321.89 294.00,322.52 318.00,313.69 342.00,303.67 366.00,272.05 390.00,285.12 414.00,273.30 438.00,305.22 462.00,306.00 486.00,309.83 510.00,300.89 534.00,303.22 558.00,308.55 582.00,324.24 606.00,339.45 630.00,325.83 654.00,330.26 678.00,329.15 702.00,294.81 726.00,279.03 750.00,301.14" fill="none" stroke="black" stroke-width="3"/>
<line x1="102.00" y1="476" x2="102.00" y2="480" stroke="#333" stroke-width="1"/>
<text x="102.00" y="490" text-anchor="middle" font-family="Arial, sans-serif" font-size="11">1</text>
<line x1="318.00" y1="476" x2="318.00" y2="480" stroke="#333" stroke-width="1"/>
<text x="318.00" y="490" text-anchor="middle" font-family="Arial, sans-serif" font-size="11">10</text>
<line x1="558.00" y1="476" x2="558.00" y2="480" stroke="#333" stroke-width="1"/>
<text x="558.00" y="490" text-anchor="middle" font-family="Arial, sans-serif" font-size="11">20</text>
<text x="428.0" y="506" text-anchor="middle" font-family="Arial, sans-serif" font-size="14">Match</text>
<text x="64" y="278.0" transform="rotate(-90 68 278.0)" text-anchor="middle" font-family="Arial, sans-serif" font-size="14">contexGD</text>
</svg>