<svg xmlns="http://www.w3.org/2000/svg" width="780" height="556" viewBox="0 0 780 556">
<rect x="0" y="0" width="100%" height="100%" fill="white"/>
<text x="390.0" y="36" text-anchor="middle" font-family="Arial, sans-serif" font-size="20">Tottenham contexGD by Match (Opponent-Adjusted)</text>
<line x1="92" y1="56" x2="92" y2="476" stroke="#333" stroke-width="1"/>
<line x1="92" y1="476" x2="764" y2="476" stroke="#333" stroke-width="1"/>
<line x1="92" y1="266.00" x2="764" y2="266.00" stroke="#666" stroke-width="1" stroke-dasharray="3,3"/>
<line x1="88" y1="476.00" x2="92" y2="476.00" stroke="#333" stroke-width="1"/>
<text x="86" y="479.00" text-anchor="end" font-family="Arial, sans-serif" font-size="11">-2.0</text>
<line x1="88" y1="423.50" x2="92" y2="423.50" stroke="#333" stroke-width="1"/>
<text x="86" y="426.50" text-anchor="end" font-family="Arial, sans-serif" font-size="11">-1.5</text>
<line x1="88" y1="371.00" x2="92" y2="371.00" stroke="#333" stroke-width="1"/>
<text x="86" y="374.00" text-anchor="end" font-family="Arial, sans-serif" font-size="11">-1.0</text>
<line x1="88" y1="318.50" x2="92" y2="318.50" stroke="#333" stroke-width="1"/>
<text x="86" y="321.50" text-anchor="end" font-family="Arial, sans-serif" font-size="11">-0.5</text>
<line x1="88" y1="266.00" x2="92" y2="266.00" stroke="#333" stroke-width="1"/>
<text x="86" y="269.00" text-anchor="end" font-family="Arial, sans-serif" font-size="11">0</text>
<line x1="88" y1="213.50" x2="92" y2="213.50" stroke="#333" stroke-width="1"/>
<text x="86" y="216.50" text-anchor="end" font-family="Arial, sans-serif" font-size="11">0.5</text>
<line x1="88" y1="161.00" x2="92" y2="161.00" stroke="#333" stroke-width="1"/>
<text x="86" y="164.00" text-anchor="end" font-family="Arial, sans-serif" font-size="11">1.0</text>
<line x1="88" y1="108.50" x2="92" y2="108.50" stroke="#333" stroke-width="1"/>
<text x="86" y="111.50" text-anchor="end" font-family="Arial, sans-serif" font-size="11">1.5</text>
<line x1="88" y1="56.00" x2="92" y2="56.00" stroke="#333" stroke-width="1"/>
<text x="86" y="59.00" text-anchor="end" font-family="Arial, sans-serif" font-size="11">2.0</text>
<rect x="92" y="241.00" width="20" height="25.00" fill="#2f855a"/>
<rect x="116" y="105.86" width="20" height="160.14" fill="#2f855a"/>
<rect x="140" y="266.00" width="20" height="197.24" fill="#c53030"/>
<rect x="164" y="204.21" width="20" height="61.79" fill="#2f855a"/>
<rect x="188" y="217.79" width="20" height="48.21" fill="#2f855a"/>
<rect x="212" y="266.00" width="20" height="141.92" fill="#c53030"/>
<rect x="236" y="266.00" width="20" height="0.91" fill="#c53030"/>
<rect x="260" y="231.22" width="20" height="34.78" fill="#2f855a"/>
<rect x="284" y="241.21" width="20" height="24.79" fill="#2f855a"/>
<rect x="308" y="266.00" width="20" height="149.55" fill="#c53030"/>
<rect x="332" y="241.40" width="20" height="24.60" fill="#2f855a"/>
<rect x="356" y="266.00" width="20" height="91.92" fill="#c53030"/>
<rect x="380" y="266.00" width="20" height="59.75" fill="#c53030"/>
<rect x="404" y="266.00" width="20" height="25.30" fill="#c53030"/>
<rect x="428" y="155.49" width="20" height="110.51" fill="#2f855a"/>
<rect x="452" y="266.00" width="20" height="69.07" fill="#c53030"/>
<rect x="476" y="236.29" width="20" height="29.71" fill="#2f855a"/>
<rect x="500" y="266.00" width="20" height="46.19" fill="#c53030"/>
<rect x="524" y="217.84" width="20" height="48.16" fill="#2f855a"/>
<rect x="548" y="266.00" width="20" height="22.59" fill="#c53030"/>
<rect x="572" y="215.46" width="20" height="50.54" fill="#2f855a"/>
<rect x="596" y="266.00" width="20" height="71.97" fill="#c53030"/>
<rect x="620" y="266.00" width="20" height="37.44" fill="#c53030"/>
<rect x="644" y="266.00" width="20" height="8.01" fill="#c53030"/>
<rect x="668" y="266.00" width="20" height="60.49" fill="#c53030"/>
<rect x="692" y="266.00" width="20" height="94.91" fill="#c53030"/>
<rect x="716" y="266.00" width="20" height="133.05" fill="#c53030"/>
<rect x="740" y="266.00" width="20" height="161.31" fill="#c53030"/>
<polyline points="102.00,241.00 126.00,173.43 150.00,270.04 174.00,253.58 198.00,246.42 222.00,279.80 246.00,312.01 270.00,265.61 294.00,273.01 318.00,312.56 342.00,279.26 366.00,297.46 390.00,316.37 414.00,326.38 438.00,274.37 462.00,293.11 486.00,268.78 510.00,266.07 534.00,251.37 558.00,277.99 582.00,254.07 606.00,274.41 630.00,272.66 654.00,283.89 678.00,291.47 702.00,320.56 726.00,332.78 750.00,357.55" fill="none" stroke="black" stroke-width="3"/>
<line x1="102.00" y1="476" x2="102.00" y2="480" stroke="#333" stroke-width="1"/>
<text x="102.00" y="490" text-anchor="middle" font-family="Arial, sans-serif" font-size="11">1</text>
<line x1="318.00" y1="476" x2="318.00" y2="480" stroke="#333" stroke-width="1"/>
<text x="318.00" y="490" text-anchor="middle" font-family="Arial, sans-serif" font-size="11">10</text>
<line x1="558.00" y1="476" x2="558.00" y2="480" stroke="#333" stroke-width="1"/>
<text x="558.00" y="490" text-anchor="middle" font-family="Arial, sans-serif" font-size="11">20</text>
<text x="428.0" y="506" text-anchor="middle" font-family="Arial, sans-serif" font-size="14">Match</text>
<text x="64" y="278.0" transform="rotate(-90 68 278.0)" text-anchor="middle" font-family="Arial, sans-serif" font-size="14">contexGD</text>
</svg>