<svg xmlns="http://www.w3.org/2000/svg" width="780" height="556" viewBox="0 0 780 556">
<rect x="0" y="0" width="100%" height="100%" fill="white"/>
<text x="390.0" y="36" text-anchor="middle" font-family="Arial, sans-serif" font-size="20">West Ham contexGD by Match</text>
<line x1="92" y1="56" x2="92" y2="476" stroke="#333" stroke-width="1"/>
<line x1="92" y1="476" x2="764" y2="476" stroke="#333" stroke-width="1"/>
<line x1="92" y1="161.00" x2="764" y2="161.00" stroke="#666" stroke-width="1" stroke-dasharray="3,3"/>
<line x1="88" y1="476.00" x2="92" y2="476.00" stroke="#333" stroke-width="1"/>
<text x="86" y="479.00" text-anchor="end" font-family="Arial, sans-serif" font-size="11">-3.0</text>
<line x1="88" y1="423.50" x2="92" y2="423.50" stroke="#333" stroke-width="1"/>
<text x="86" y="426.50" text-anchor="end" font-family="Arial, sans-serif" font-size="11">-2.5</text>
<line x1="88" y1="371.00" x2="92" y2="371.00" stroke="#333" stroke-width="1"/>
<text x="86" y="374.00" text-anchor="end" font-family="Arial, sans-serif" font-size="11">-2.0</text>
<line x1="88" y1="318.50" x2="92" y2="318.50" stroke="#333" stroke-width="1"/>
<text x="86" y="321.50" text-anchor="end" font-family="Arial, sans-serif" font-size="11">-1.5</text>
<line x1="88" y1="266.00" x2="92" y2="266.00" stroke="#333" stroke-width="1"/>
<text x="86" y="269.00" text-anchor="end" font-family="Arial, sans-serif" font-size="11">-1.0</text>
<line x1="88" y1="213.50" x2="92" y2="213.50" stroke="#333" stroke-width="1"/>
<text x="86" y="216.50" text-anchor="end" font-family="Arial, sans-serif" font-size="11">-0.5</text>
<line x1="88" y1="161.00" x2="92" y2="161.00" stroke="#333" stroke-width="1"/>
<text x="86" y="164.00" text-anchor="end" font-family="Arial, sans-serif" font-size="11">0</text>
<line x1="88" y1="108.50" x2="92" y2="108.50" stroke="#333" stroke-width="1"/>
<text x="86" y="111.50" text-anchor="end" font-family="Arial, sans-serif" font-size="11">0.5</text>
<line x1="88" y1="56.00" x2="92" y2="56.00" stroke="#333" stroke-width="1"/>
<text x="86" y="59.00" text-anchor="end" font-family="Arial, sans-serif" font-size="11">1.0</text>
<rect x="92" y="139.90" width="20" height="21.10" fill="#2f855a"/>
<rect x="116" y="161.00" width="20" height="140.14" fill="#c53030"/>
<rect x="140" y="140.42" width="20" height="20.58" fill="#2f855a"/>
<rect x="164" y="161.00" width="20" height="94.79" fill="#c53030"/>
<rect x="188" y="161.00" width="20" height="62.78" fill="#c53030"/>
<rect x="212" y="161.00" width="20" height="55.41" fill="#c53030"/>
<rect x="236" y="161.00" width="20" height="281.49" fill="#c53030"/>
<rect x="260" y="161.00" width="20" height="240.97" fill="#c53030"/>
<rect x="284" y="161.00" width="20" height="62.58" fill="#c53030"/>
<rect x="308" y="161.00" width="20" height="13.96" fill="#c53030"/>
<rect x="332" y="161.00" width="20" height="27.03" fill="#c53030"/>
<rect x="356" y="161.00" width="20" height="182.45" fill="#c53030"/>
<rect x="380" y="161.00" width="20" height="89.56" fill="#c53030"/>
<rect x="404" y="161.00" width="20" height="59.70" fill="#c53030"/>
<rect x="428" y="161.00" width="20" height="66.27" fill="#c53030"/>
<rect x="452" y="161.00" width="20" height="47.44" fill="#c53030"/>
<rect x="476" y="161.00" width="20" height="307.83" fill="#c53030"/>
<rect x="500" y="152.27" width="20" height="8.73" fill="#2f855a"/>
<rect x="524" y="161.00" width="20" height="0.72" fill="#c53030"/>
<rect x="548" y="161.00" width="20" height="16.71" fill="#c53030"/>
<rect x="572" y="113.98" width="20" height="47.02" fill="#2f855a"/>
<rect x="596" y="161.00" width="20" height="17.22" fill="#c53030"/>
<rect x="620" y="65.67" width="20" height="95.33" fill="#2f855a"/>
<rect x="644" y="161.00" width="20" height="44.66" fill="#c53030"/>
<rect x="668" y="156.09" width="20" height="4.91" fill="#2f855a"/>
<rect x="692" y="161.00" width="20" height="18.84" fill="#c53030"/>
<rect x="716" y="84.74" width="20" height="76.26" fill="#2f855a"/>
<rect x="740" y="161.00" width="20" height="154.03" fill="#c53030"/>
<line x1="102.00" y1="476" x2="102.00" y2="480" stroke="#333" stroke-width="1"/>
<text x="102.00" y="490" text-anchor="middle" font-family="Arial, sans-serif" font-size="11">1</text>
<line x1="318.00" y1="476" x2="318.00" y2="480" stroke="#333" stroke-width="1"/>
<text x="318.00" y="490" text-anchor="middle" font-family="Arial, sans-serif" font-size="11">10</text>
<line x1="558.00" y1="476" x2="558.00" y2="480" stroke="#333" stroke-width="1"/>
<text x="558.00" y="490" text-anchor="middle" font-family="Arial, sans-serif" font-size="11">20</text>
<text x="428.0" y="506" text-anchor="middle" font-family="Arial, sans-serif" font-size="14">Match</text>
<text x="68" y="278.0" transform="rotate(-90 68 278.0)" text-anchor="middle" font-family="Arial, sans-serif" font-size="14">contexGD</text>
</svg>