<svg xmlns="http://www.w3.org/2000/svg" width="876" height="556" viewBox="0 0 876 556">
<rect x="0" y="0" width="100%" height="100%" fill="white"/>
<text x="438.0" y="36" text-anchor="middle" font-family="Arial, sans-serif" font-size="20">Arsenal contexGD by Match (Opponent-Adjusted)</text>
<line x1="92" y1="56" x2="92" y2="476" stroke="#333" stroke-width="1"/>
<line x1="92" y1="476" x2="860" y2="476" stroke="#333" stroke-width="1"/>
<line x1="92" y1="98.00" x2="860" y2="98.00" stroke="#cfcfcf" stroke-width="1" stroke-dasharray="3,3"/>
<line x1="92" y1="182.00" x2="860" y2="182.00" stroke="#cfcfcf" stroke-width="1" stroke-dasharray="3,3"/>
<line x1="92" y1="266.00" x2="860" y2="266.00" stroke="#666" stroke-width="1" stroke-dasharray="3,3"/>
<line x1="92" y1="350.00" x2="860" y2="350.00" stroke="#cfcfcf" stroke-width="1" stroke-dasharray="3,3"/>
<line x1="92" y1="434.00" x2="860" y2="434.00" stroke="#cfcfcf" stroke-width="1" stroke-dasharray="3,3"/>
<line x1="88" y1="476.00" x2="92" y2="476.00" stroke="#333" stroke-width="1"/>
<text x="86" y="479.00" text-anchor="end" font-family="Arial, sans-serif" font-size="11">-2.5</text>
<line x1="88" y1="434.00" x2="92" y2="434.00" stroke="#333" stroke-width="1"/>
<text x="86" y="437.00" text-anchor="end" font-family="Arial, sans-serif" font-size="11">-2.0</text>
<line x1="88" y1="392.00" x2="92" y2="392.00" stroke="#333" stroke-width="1"/>
<text x="86" y="395.00" text-anchor="end" font-family="Arial, sans-serif" font-size="11">-1.5</text>
<line x1="88" y1="350.00" x2="92" y2="350.00" stroke="#333" stroke-width="1"/>
<text x="86" y="353.00" text-anchor="end" font-family="Arial, sans-serif" font-size="11">-1.0</text>
<line x1="88" y1="308.00" x2="92" y2="308.00" stroke="#333" stroke-width="1"/>
<text x="86" y="311.00" text-anchor="end" font-family="Arial, sans-serif" font-size="11">-0.5</text>
<line x1="88" y1="266.00" x2="92" y2="266.00" stroke="#333" stroke-width="1"/>
<text x="86" y="269.00" text-anchor="end" font-family="Arial, sans-serif" font-size="11">0</text>
<line x1="88" y1="224.00" x2="92" y2="224.00" stroke="#333" stroke-width="1"/>
<text x="86" y="227.00" text-anchor="end" font-family="Arial, sans-serif" font-size="11">0.5</text>
<line x1="88" y1="182.00" x2="92" y2="182.00" stroke="#333" stroke-width="1"/>
<text x="86" y="185.00" text-anchor="end" font-family="Arial, sans-serif" font-size="11">1.0</text>
<line x1="88" y1="140.00" x2="92" y2="140.00" stroke="#333" stroke-width="1"/>
<text x="86" y="143.00" text-anchor="end" font-family="Arial, sans-serif" font-size="11">1.5</text>
<line x1="88" y1="98.00" x2="92" y2="98.00" stroke="#333" stroke-width="1"/>
<text x="86" y="101.00" text-anchor="end" font-family="Arial, sans-serif" font-size="11">2.0</text>
<line x1="88" y1="56.00" x2="92" y2="56.00" stroke="#333" stroke-width="1"/>
<text x="86" y="59.00" text-anchor="end" font-family="Arial, sans-serif" font-size="11">2.5</text>
<rect x="92" y="228.03" width="20" height="37.97" fill="#2f855a"/>
<rect x="116" y="111.95" width="20" height="154.05" fill="#2f855a"/>
<rect x="140" y="190.59" width="20" height="75.41" fill="#2f855a"/>
<rect x="164" y="166.33" width="20" height="99.67" fill="#2f855a"/>
<rect x="188" y="191.97" width="20" height="74.03" fill="#2f855a"/>
<rect x="212" y="144.96" width="20" height="121.04" fill="#2f855a"/>
<rect x="236" y="111.04" width="20" height="154.96" fill="#2f855a"/>
<rect x="260" y="151.45" width="20" height="114.55" fill="#2f855a"/>
<rect x="284" y="209.86" width="20" height="56.14" fill="#2f855a"/>
<rect x="308" y="208.65" width="20" height="57.35" fill="#2f855a"/>
<rect x="332" y="215.24" width="20" height="50.76" fill="#2f855a"/>
<rect x="356" y="129.79" width="20" height="136.21" fill="#2f855a"/>
<rect x="380" y="221.94" width="20" height="44.06" fill="#2f855a"/>
<rect x="404" y="154.51" width="20" height="111.49" fill="#2f855a"/>
<rect x="428" y="265.41" width="20" height="0.59" fill="#2f855a"/>
<rect x="452" y="240.89" width="20" height="25.11" fill="#2f855a"/>
<rect x="476" y="120.85" width="20" height="145.15" fill="#2f855a"/>
<rect x="500" y="165.05" width="20" height="100.95" fill="#2f855a"/>
<rect x="524" y="115.42" width="20" height="150.58" fill="#2f855a"/>
<rect x="548" y="177.46" width="20" height="88.54" fill="#2f855a"/>
<rect x="572" y="168.99" width="20" height="97.01" fill="#2f855a"/>
<rect x="596" y="152.74" width="20" height="113.26" fill="#2f855a"/>
<rect x="620" y="200.13" width="20" height="65.87" fill="#2f855a"/>
<rect x="644" y="119.88" width="20" height="146.12" fill="#2f855a"/>
<rect x="668" y="225.10" width="20" height="40.90" fill="#2f855a"/>
<rect x="692" y="230.14" width="20" height="35.86" fill="#2f855a"/>
<rect x="716" y="220.71" width="20" height="45.29" fill="#2f855a"/>
<rect x="740" y="96.02" width="20" height="169.98" fill="#2f855a"/>
<rect x="764" y="196.97" width="20" height="69.03" fill="#2f855a"/>
<rect x="788" y="225.66" width="20" height="40.34" fill="#2f855a"/>
<rect x="812" y="206.44" width="20" height="59.56" fill="#2f855a"/>
<rect x="836" y="266.00" width="20" height="29.88" fill="#c53030"/>
<polyline points="102.00,228.03 126.00,169.99 150.00,176.86 174.00,174.23 198.00,177.77 222.00,172.30 246.00,163.55 270.00,162.04 294.00,167.35 318.00,171.48 342.00,170.20 366.00,171.99 390.00,175.12 414.00,173.94 438.00,181.28 462.00,190.88 486.00,191.86 510.00,193.22 534.00,183.78 558.00,180.66 582.00,176.03 606.00,178.33 630.00,176.15 654.00,172.68 678.00,168.65 702.00,167.58 726.00,177.56 750.00,170.66 774.00,178.81 798.00,183.63 822.00,187.38 846.00,201.69" fill="none" stroke="black" stroke-width="3"/>
<line x1="640" y1="76" x2="676" y2="76" stroke="black" stroke-width="3"/>
<text x="684" y="80" font-family="Arial, sans-serif" font-size="12">10-match rolling average</text>
<line x1="102.00" y1="476" x2="102.00" y2="480" stroke="#333" stroke-width="1"/>
<text x="102.00" y="490" text-anchor="middle" font-family="Arial, sans-serif" font-size="11">1</text>
<line x1="318.00" y1="476" x2="318.00" y2="480" stroke="#333" stroke-width="1"/>
<text x="318.00" y="490" text-anchor="middle" font-family="Arial, sans-serif" font-size="11">10</text>
<line x1="558.00" y1="476" x2="558.00" y2="480" stroke="#333" stroke-width="1"/>
<text x="558.00" y="490" text-anchor="middle" font-family="Arial, sans-serif" font-size="11">20</text>
<line x1="798.00" y1="476" x2="798.00" y2="480" stroke="#333" stroke-width="1"/>
<text x="798.00" y="490" text-anchor="middle" font-family="Arial, sans-serif" font-size="11">30</text>
<text x="476.0" y="506" text-anchor="middle" font-family="Arial, sans-serif" font-size="14">Match</text>
<text x="64" y="278.0" transform="rotate(-90 68 278.0)" text-anchor="middle" font-family="Arial, sans-serif" font-size="14">contexGD</text>
</svg>