<svg xmlns="http://www.w3.org/2000/svg" width="900" height="556" viewBox="0 0 900 556">
<rect x="0" y="0" width="100%" height="100%" fill="white"/>
<text x="450.0" y="36" text-anchor="middle" font-family="Arial, sans-serif" font-size="20">Leeds contexGD by Match (Opponent-Adjusted)</text>
<line x1="92" y1="56" x2="92" y2="476" stroke="#333" stroke-width="1"/>
<line x1="92" y1="476" x2="884" y2="476" stroke="#333" stroke-width="1"/>
<line x1="92" y1="476.00" x2="884" y2="476.00" stroke="#cfcfcf" stroke-width="1" stroke-dasharray="3,3"/>
<line x1="92" y1="434.00" x2="884" y2="434.00" stroke="#cfcfcf" stroke-width="1" stroke-dasharray="3,3"/>
<line x1="92" y1="392.00" x2="884" y2="392.00" stroke="#cfcfcf" stroke-width="1" stroke-dasharray="3,3"/>
<line x1="92" y1="350.00" x2="884" y2="350.00" stroke="#cfcfcf" stroke-width="1" stroke-dasharray="3,3"/>
<line x1="92" y1="308.00" x2="884" y2="308.00" stroke="#cfcfcf" stroke-width="1" stroke-dasharray="3,3"/>
<line x1="92" y1="266.00" x2="884" y2="266.00" stroke="#666" stroke-width="1" stroke-dasharray="3,3"/>
<line x1="92" y1="224.00" x2="884" y2="224.00" stroke="#cfcfcf" stroke-width="1" stroke-dasharray="3,3"/>
<line x1="92" y1="182.00" x2="884" y2="182.00" stroke="#cfcfcf" stroke-width="1" stroke-dasharray="3,3"/>
<line x1="92" y1="140.00" x2="884" y2="140.00" stroke="#cfcfcf" stroke-width="1" stroke-dasharray="3,3"/>
<line x1="92" y1="98.00" x2="884" y2="98.00" stroke="#cfcfcf" stroke-width="1" stroke-dasharray="3,3"/>
<line x1="92" y1="56.00" x2="884" y2="56.00" stroke="#cfcfcf" stroke-width="1" stroke-dasharray="3,3"/>
<line x1="88" y1="476.00" x2="92" y2="476.00" stroke="#333" stroke-width="1"/>
<text x="86" y="479.00" text-anchor="end" font-family="Arial, sans-serif" font-size="11">-2.5</text>
<line x1="88" y1="434.00" x2="92" y2="434.00" stroke="#333" stroke-width="1"/>
<text x="86" y="437.00" text-anchor="end" font-family="Arial, sans-serif" font-size="11">-2.0</text>
<line x1="88" y1="392.00" x2="92" y2="392.00" stroke="#333" stroke-width="1"/>
<text x="86" y="395.00" text-anchor="end" font-family="Arial, sans-serif" font-size="11">-1.5</text>
<line x1="88" y1="350.00" x2="92" y2="350.00" stroke="#333" stroke-width="1"/>
<text x="86" y="353.00" text-anchor="end" font-family="Arial, sans-serif" font-size="11">-1.0</text>
<line x1="88" y1="308.00" x2="92" y2="308.00" stroke="#333" stroke-width="1"/>
<text x="86" y="311.00" text-anchor="end" font-family="Arial, sans-serif" font-size="11">-0.5</text>
<line x1="88" y1="266.00" x2="92" y2="266.00" stroke="#333" stroke-width="1"/>
<text x="86" y="269.00" text-anchor="end" font-family="Arial, sans-serif" font-size="11">0</text>
<line x1="88" y1="224.00" x2="92" y2="224.00" stroke="#333" stroke-width="1"/>
<text x="86" y="227.00" text-anchor="end" font-family="Arial, sans-serif" font-size="11">0.5</text>
<line x1="88" y1="182.00" x2="92" y2="182.00" stroke="#333" stroke-width="1"/>
<text x="86" y="185.00" text-anchor="end" font-family="Arial, sans-serif" font-size="11">1.0</text>
<line x1="88" y1="140.00" x2="92" y2="140.00" stroke="#333" stroke-width="1"/>
<text x="86" y="143.00" text-anchor="end" font-family="Arial, sans-serif" font-size="11">1.5</text>
<line x1="88" y1="98.00" x2="92" y2="98.00" stroke="#333" stroke-width="1"/>
<text x="86" y="101.00" text-anchor="end" font-family="Arial, sans-serif" font-size="11">2.0</text>
<line x1="88" y1="56.00" x2="92" y2="56.00" stroke="#333" stroke-width="1"/>
<text x="86" y="59.00" text-anchor="end" font-family="Arial, sans-serif" font-size="11">2.5</text>
<rect x="92" y="238.29" width="20" height="27.71" fill="#2f855a"/>
<rect x="116" y="266.00" width="20" height="79.36" fill="#c53030"/>
<rect x="140" y="266.00" width="20" height="5.54" fill="#c53030"/>
<rect x="164" y="240.83" width="20" height="25.17" fill="#2f855a"/>
<rect x="188" y="266.00" width="20" height="75.02" fill="#c53030"/>
<rect x="212" y="266.00" width="20" height="14.85" fill="#c53030"/>
<rect x="236" y="266.00" width="20" height="41.55" fill="#c53030"/>
<rect x="260" y="266.00" width="20" height="3.62" fill="#c53030"/>
<rect x="284" y="266.00" width="20" height="19.89" fill="#c53030"/>
<rect x="308" y="266.00" width="20" height="101.52" fill="#c53030"/>
<rect x="332" y="266.00" width="20" height="44.74" fill="#c53030"/>
<rect x="356" y="256.56" width="20" height="9.44" fill="#2f855a"/>
<rect x="380" y="231.65" width="20" height="34.35" fill="#2f855a"/>
<rect x="404" y="233.94" width="20" height="32.06" fill="#2f855a"/>
<rect x="428" y="266.00" width="20" height="40.42" fill="#c53030"/>
<rect x="452" y="216.25" width="20" height="49.75" fill="#2f855a"/>
<rect x="476" y="190.04" width="20" height="75.96" fill="#2f855a"/>
<rect x="500" y="202.02" width="20" height="63.98" fill="#2f855a"/>
<rect x="524" y="266.00" width="20" height="31.61" fill="#c53030"/>
<rect x="548" y="260.47" width="20" height="5.53" fill="#2f855a"/>
<rect x="572" y="256.18" width="20" height="9.82" fill="#2f855a"/>
<rect x="596" y="238.35" width="20" height="27.65" fill="#2f855a"/>
<rect x="620" y="214.24" width="20" height="51.76" fill="#2f855a"/>
<rect x="644" y="266.00" width="20" height="70.88" fill="#c53030"/>
<rect x="668" y="192.30" width="20" height="73.70" fill="#2f855a"/>
<rect x="692" y="266.00" width="20" height="98.14" fill="#c53030"/>
<rect x="716" y="256.77" width="20" height="9.23" fill="#2f855a"/>
<rect x="740" y="266.00" width="20" height="2.15" fill="#c53030"/>
<rect x="764" y="265.55" width="20" height="0.45" fill="#2f855a"/>
<rect x="788" y="195.17" width="20" height="70.83" fill="#2f855a"/>
<rect x="812" y="237.31" width="20" height="28.69" fill="#2f855a"/>
<rect x="836" y="202.12" width="20" height="63.88" fill="#2f855a"/>
<rect x="860" y="223.76" width="20" height="42.24" fill="#2f855a"/>
<polyline points="102.00,238.29 126.00,247.18 150.00,249.20 174.00,248.51 198.00,256.19 222.00,258.23 246.00,262.33 270.00,262.93 294.00,264.84 318.00,273.36 342.00,276.46 366.00,274.81 390.00,271.23 414.00,268.13 438.00,271.31 462.00,266.74 486.00,260.37 510.00,255.53 534.00,259.02 558.00,259.14 582.00,258.90 606.00,257.19 630.00,253.63 654.00,260.54 678.00,254.87 702.00,263.94 726.00,263.35 750.00,263.75 774.00,263.90 798.00,258.19 822.00,256.46 846.00,251.95 870.00,249.61" fill="none" stroke="black" stroke-width="3"/>
<line x1="644" y1="76" x2="680" y2="76" stroke="black" stroke-width="3"/>
<text x="688" y="80" font-family="Arial, sans-serif" font-size="12">Decaying average (8-match half-life)</text>
<line x1="102.00" y1="476" x2="102.00" y2="480" stroke="#333" stroke-width="1"/>
<text x="102.00" y="490" text-anchor="middle" font-family="Arial, sans-serif" font-size="11">1</text>
<line x1="318.00" y1="476" x2="318.00" y2="480" stroke="#333" stroke-width="1"/>
<text x="318.00" y="490" text-anchor="middle" font-family="Arial, sans-serif" font-size="11">10</text>
<line x1="558.00" y1="476" x2="558.00" y2="480" stroke="#333" stroke-width="1"/>
<text x="558.00" y="490" text-anchor="middle" font-family="Arial, sans-serif" font-size="11">20</text>
<line x1="798.00" y1="476" x2="798.00" y2="480" stroke="#333" stroke-width="1"/>
<text x="798.00" y="490" text-anchor="middle" font-family="Arial, sans-serif" font-size="11">30</text>
<text x="488.0" y="506" text-anchor="middle" font-family="Arial, sans-serif" font-size="14">Match</text>
<text x="64" y="278.0" transform="rotate(-90 68 278.0)" text-anchor="middle" font-family="Arial, sans-serif" font-size="14">contexGD</text>
</svg>