<svg xmlns="http://www.w3.org/2000/svg" width="804" height="556" viewBox="0 0 804 556">
<rect x="0" y="0" width="100%" height="100%" fill="white"/>
<text x="402.0" y="36" text-anchor="middle" font-family="Arial, sans-serif" font-size="20">Manchester United contexGD by Match (Opponent-Adjusted)</text>
<line x1="92" y1="56" x2="92" y2="476" stroke="#333" stroke-width="1"/>
<line x1="92" y1="476" x2="788" y2="476" stroke="#333" stroke-width="1"/>
<line x1="92" y1="98.00" x2="788" y2="98.00" stroke="#cfcfcf" stroke-width="1" stroke-dasharray="3,3"/>
<line x1="92" y1="182.00" x2="788" y2="182.00" stroke="#cfcfcf" stroke-width="1" stroke-dasharray="3,3"/>
<line x1="92" y1="266.00" x2="788" y2="266.00" stroke="#666" stroke-width="1" stroke-dasharray="3,3"/>
<line x1="92" y1="350.00" x2="788" y2="350.00" stroke="#cfcfcf" stroke-width="1" stroke-dasharray="3,3"/>
<line x1="92" y1="434.00" x2="788" y2="434.00" stroke="#cfcfcf" stroke-width="1" stroke-dasharray="3,3"/>
<line x1="88" y1="476.00" x2="92" y2="476.00" stroke="#333" stroke-width="1"/>
<text x="86" y="479.00" text-anchor="end" font-family="Arial, sans-serif" font-size="11">-2.5</text>
<line x1="88" y1="434.00" x2="92" y2="434.00" stroke="#333" stroke-width="1"/>
<text x="86" y="437.00" text-anchor="end" font-family="Arial, sans-serif" font-size="11">-2.0</text>
<line x1="88" y1="392.00" x2="92" y2="392.00" stroke="#333" stroke-width="1"/>
<text x="86" y="395.00" text-anchor="end" font-family="Arial, sans-serif" font-size="11">-1.5</text>
<line x1="88" y1="350.00" x2="92" y2="350.00" stroke="#333" stroke-width="1"/>
<text x="86" y="353.00" text-anchor="end" font-family="Arial, sans-serif" font-size="11">-1.0</text>
<line x1="88" y1="308.00" x2="92" y2="308.00" stroke="#333" stroke-width="1"/>
<text x="86" y="311.00" text-anchor="end" font-family="Arial, sans-serif" font-size="11">-0.5</text>
<line x1="88" y1="266.00" x2="92" y2="266.00" stroke="#333" stroke-width="1"/>
<text x="86" y="269.00" text-anchor="end" font-family="Arial, sans-serif" font-size="11">0</text>
<line x1="88" y1="224.00" x2="92" y2="224.00" stroke="#333" stroke-width="1"/>
<text x="86" y="227.00" text-anchor="end" font-family="Arial, sans-serif" font-size="11">0.5</text>
<line x1="88" y1="182.00" x2="92" y2="182.00" stroke="#333" stroke-width="1"/>
<text x="86" y="185.00" text-anchor="end" font-family="Arial, sans-serif" font-size="11">1.0</text>
<line x1="88" y1="140.00" x2="92" y2="140.00" stroke="#333" stroke-width="1"/>
<text x="86" y="143.00" text-anchor="end" font-family="Arial, sans-serif" font-size="11">1.5</text>
<line x1="88" y1="98.00" x2="92" y2="98.00" stroke="#333" stroke-width="1"/>
<text x="86" y="101.00" text-anchor="end" font-family="Arial, sans-serif" font-size="11">2.0</text>
<line x1="88" y1="56.00" x2="92" y2="56.00" stroke="#333" stroke-width="1"/>
<text x="86" y="59.00" text-anchor="end" font-family="Arial, sans-serif" font-size="11">2.5</text>
<rect x="92" y="184.24" width="20" height="81.76" fill="#2f855a"/>
<rect x="116" y="244.99" width="20" height="21.01" fill="#2f855a"/>
<rect x="140" y="219.12" width="20" height="46.88" fill="#2f855a"/>
<rect x="164" y="232.01" width="20" height="33.99" fill="#2f855a"/>
<rect x="188" y="217.23" width="20" height="48.77" fill="#2f855a"/>
<rect x="212" y="266.00" width="20" height="56.04" fill="#c53030"/>
<rect x="236" y="228.36" width="20" height="37.64" fill="#2f855a"/>
<rect x="260" y="195.92" width="20" height="70.08" fill="#2f855a"/>
<rect x="284" y="219.19" width="20" height="46.81" fill="#2f855a"/>
<rect x="308" y="266.00" width="20" height="30.50" fill="#c53030"/>
<rect x="332" y="266.00" width="20" height="12.81" fill="#c53030"/>
<rect x="356" y="262.10" width="20" height="3.90" fill="#2f855a"/>
<rect x="380" y="262.66" width="20" height="3.34" fill="#2f855a"/>
<rect x="404" y="266.00" width="20" height="22.35" fill="#c53030"/>
<rect x="428" y="108.29" width="20" height="157.71" fill="#2f855a"/>
<rect x="452" y="186.18" width="20" height="79.82" fill="#2f855a"/>
<rect x="476" y="196.96" width="20" height="69.04" fill="#2f855a"/>
<rect x="500" y="266.00" width="20" height="41.27" fill="#c53030"/>
<rect x="524" y="266.00" width="20" height="52.11" fill="#c53030"/>
<rect x="548" y="255.95" width="20" height="10.05" fill="#2f855a"/>
<rect x="572" y="179.54" width="20" height="86.46" fill="#2f855a"/>
<rect x="596" y="188.15" width="20" height="77.85" fill="#2f855a"/>
<rect x="620" y="212.80" width="20" height="53.20" fill="#2f855a"/>
<rect x="644" y="233.67" width="20" height="32.33" fill="#2f855a"/>
<rect x="668" y="210.95" width="20" height="55.05" fill="#2f855a"/>
<rect x="692" y="266.00" width="20" height="9.87" fill="#c53030"/>
<rect x="716" y="249.68" width="20" height="16.32" fill="#2f855a"/>
<rect x="740" y="260.95" width="20" height="5.05" fill="#2f855a"/>
<rect x="764" y="266.00" width="20" height="23.84" fill="#c53030"/>
<polyline points="102.00,184.24 126.00,214.61 150.00,216.11 174.00,220.09 198.00,219.52 222.00,236.60 246.00,235.43 270.00,230.49 294.00,229.23 318.00,235.96 342.00,245.42 366.00,247.13 390.00,251.48 414.00,257.12 438.00,246.22 462.00,232.64 486.00,229.50 510.00,240.63 534.00,250.52 558.00,246.47 582.00,236.54 606.00,229.15 630.00,224.16 654.00,218.69 678.00,228.96 702.00,237.93 726.00,243.20 750.00,238.57 774.00,235.74" fill="none" stroke="black" stroke-width="3"/>
<line x1="568" y1="76" x2="604" y2="76" stroke="black" stroke-width="3"/>
<text x="612" y="80" font-family="Arial, sans-serif" font-size="12">10-match rolling average</text>
<line x1="102.00" y1="476" x2="102.00" y2="480" stroke="#333" stroke-width="1"/>
<text x="102.00" y="490" text-anchor="middle" font-family="Arial, sans-serif" font-size="11">1</text>
<line x1="318.00" y1="476" x2="318.00" y2="480" stroke="#333" stroke-width="1"/>
<text x="318.00" y="490" text-anchor="middle" font-family="Arial, sans-serif" font-size="11">10</text>
<line x1="558.00" y1="476" x2="558.00" y2="480" stroke="#333" stroke-width="1"/>
<text x="558.00" y="490" text-anchor="middle" font-family="Arial, sans-serif" font-size="11">20</text>
<text x="440.0" y="506" text-anchor="middle" font-family="Arial, sans-serif" font-size="14">Match</text>
<text x="64" y="278.0" transform="rotate(-90 68 278.0)" text-anchor="middle" font-family="Arial, sans-serif" font-size="14">contexGD</text>
</svg>