<svg xmlns="http://www.w3.org/2000/svg" width="1020" height="556" viewBox="0 0 1020 556">
<rect x="0" y="0" width="100%" height="100%" fill="white" />
<text x="510.0" y="36" text-anchor="middle" font-family="Arial, sans-serif" font-size="20">Chelsea contexGD by Match (Opponent-Adjusted)</text>
<line x1="92" y1="56" x2="92" y2="476" stroke="#333" stroke-width="1" />
<line x1="92" y1="476" x2="1004" y2="476" stroke="#333" stroke-width="1" />
<line x1="92" y1="476.00" x2="1004" y2="476.00" stroke="#cfcfcf" stroke-width="1" stroke-dasharray="3,3" />
<line x1="92" y1="434.00" x2="1004" y2="434.00" stroke="#cfcfcf" stroke-width="1" stroke-dasharray="3,3" />
<line x1="92" y1="392.00" x2="1004" y2="392.00" stroke="#cfcfcf" stroke-width="1" stroke-dasharray="3,3" />
<line x1="92" y1="350.00" x2="1004" y2="350.00" stroke="#cfcfcf" stroke-width="1" stroke-dasharray="3,3" />
<line x1="92" y1="308.00" x2="1004" y2="308.00" stroke="#cfcfcf" stroke-width="1" stroke-dasharray="3,3" />
<line x1="92" y1="266.00" x2="1004" y2="266.00" stroke="#666" stroke-width="1" stroke-dasharray="3,3" />
<line x1="92" y1="224.00" x2="1004" y2="224.00" stroke="#cfcfcf" stroke-width="1" stroke-dasharray="3,3" />
<line x1="92" y1="182.00" x2="1004" y2="182.00" stroke="#cfcfcf" stroke-width="1" stroke-dasharray="3,3" />
<line x1="92" y1="140.00" x2="1004" y2="140.00" stroke="#cfcfcf" stroke-width="1" stroke-dasharray="3,3" />
<line x1="92" y1="98.00" x2="1004" y2="98.00" stroke="#cfcfcf" stroke-width="1" stroke-dasharray="3,3" />
<line x1="92" y1="56.00" x2="1004" y2="56.00" stroke="#cfcfcf" stroke-width="1" stroke-dasharray="3,3" />
<line x1="88" y1="476.00" x2="92" y2="476.00" stroke="#333" stroke-width="1" />
<text x="86" y="479.00" text-anchor="end" font-family="Arial, sans-serif" font-size="11">-2.5</text>
<line x1="88" y1="434.00" x2="92" y2="434.00" stroke="#333" stroke-width="1" />
<text x="86" y="437.00" text-anchor="end" font-family="Arial, sans-serif" font-size="11">-2.0</text>
<line x1="88" y1="392.00" x2="92" y2="392.00" stroke="#333" stroke-width="1" />
<text x="86" y="395.00" text-anchor="end" font-family="Arial, sans-serif" font-size="11">-1.5</text>
<line x1="88" y1="350.00" x2="92" y2="350.00" stroke="#333" stroke-width="1" />
<text x="86" y="353.00" text-anchor="end" font-family="Arial, sans-serif" font-size="11">-1.0</text>
<line x1="88" y1="308.00" x2="92" y2="308.00" stroke="#333" stroke-width="1" />
<text x="86" y="311.00" text-anchor="end" font-family="Arial, sans-serif" font-size="11">-0.5</text>
<line x1="88" y1="266.00" x2="92" y2="266.00" stroke="#333" stroke-width="1" />
<text x="86" y="269.00" text-anchor="end" font-family="Arial, sans-serif" font-size="11">0</text>
<line x1="88" y1="224.00" x2="92" y2="224.00" stroke="#333" stroke-width="1" />
<text x="86" y="227.00" text-anchor="end" font-family="Arial, sans-serif" font-size="11">0.5</text>
<line x1="88" y1="182.00" x2="92" y2="182.00" stroke="#333" stroke-width="1" />
<text x="86" y="185.00" text-anchor="end" font-family="Arial, sans-serif" font-size="11">1.0</text>
<line x1="88" y1="140.00" x2="92" y2="140.00" stroke="#333" stroke-width="1" />
<text x="86" y="143.00" text-anchor="end" font-family="Arial, sans-serif" font-size="11">1.5</text>
<line x1="88" y1="98.00" x2="92" y2="98.00" stroke="#333" stroke-width="1" />
<text x="86" y="101.00" text-anchor="end" font-family="Arial, sans-serif" font-size="11">2.0</text>
<line x1="88" y1="56.00" x2="92" y2="56.00" stroke="#333" stroke-width="1" />
<text x="86" y="59.00" text-anchor="end" font-family="Arial, sans-serif" font-size="11">2.5</text>
<rect x="92" y="210.82" width="20" height="55.18" fill="#2f855a" />
<rect x="116" y="190.17" width="20" height="75.83" fill="#2f855a" />
<rect x="140" y="266.00" width="20" height="0.68" fill="#c53030" />
<rect x="164" y="199.54" width="20" height="66.46" fill="#2f855a" />
<rect x="188" y="232.47" width="20" height="33.53" fill="#2f855a" />
<rect x="212" y="266.00" width="20" height="2.40" fill="#c53030" />
<rect x="236" y="246.32" width="20" height="19.68" fill="#2f855a" />
<rect x="260" y="210.29" width="20" height="55.71" fill="#2f855a" />
<rect x="284" y="266.00" width="20" height="3.56" fill="#c53030" />
<rect x="308" y="112.59" width="20" height="153.41" fill="#2f855a" />
<rect x="332" y="149.03" width="20" height="116.97" fill="#2f855a" />
<rect x="356" y="222.87" width="20" height="43.13" fill="#2f855a" />
<rect x="380" y="176.59" width="20" height="89.41" fill="#2f855a" />
<rect x="404" y="255.75" width="20" height="10.25" fill="#2f855a" />
<rect x="428" y="249.19" width="20" height="16.81" fill="#2f855a" />
<rect x="452" y="196.63" width="20" height="69.37" fill="#2f855a" />
<rect x="476" y="266.00" width="20" height="39.83" fill="#c53030" />
<rect x="500" y="196.83" width="20" height="69.17" fill="#2f855a" />
<rect x="524" y="258.58" width="20" height="7.42" fill="#2f855a" />
<rect x="548" y="221.48" width="20" height="44.52" fill="#2f855a" />
<rect x="572" y="199.09" width="20" height="66.91" fill="#2f855a" />
<rect x="596" y="266.00" width="20" height="44.31" fill="#c53030" />
<rect x="620" y="214.25" width="20" height="51.75" fill="#2f855a" />
<rect x="644" y="266.00" width="20" height="20.18" fill="#c53030" />
<rect x="668" y="149.88" width="20" height="116.12" fill="#2f855a" />
<rect x="692" y="125.80" width="20" height="140.20" fill="#2f855a" />
<rect x="716" y="221.45" width="20" height="44.55" fill="#2f855a" />
<rect x="740" y="208.04" width="20" height="57.96" fill="#2f855a" />
<rect x="764" y="138.92" width="20" height="127.08" fill="#2f855a" />
<rect x="788" y="264.97" width="20" height="1.03" fill="#2f855a" />
<rect x="812" y="266.00" width="20" height="21.29" fill="#c53030" />
<rect x="836" y="266.00" width="20" height="98.36" fill="#c53030" />
<rect x="860" y="199.15" width="20" height="66.85" fill="#2f855a" />
<rect x="884" y="266.00" width="20" height="100.35" fill="#c53030" />
<rect x="908" y="266.00" width="20" height="32.49" fill="#c53030" />
<rect x="932" y="212.80" width="20" height="53.20" fill="#2f855a" />
<rect x="956" y="266.00" width="20" height="51.65" fill="#c53030" />
<rect x="980" y="266.00" width="20" height="100.96" fill="#c53030" />
<polyline points="102.00,210.82 126.00,200.05 150.00,224.21 174.00,217.22 198.00,220.82 222.00,230.56 246.00,233.44 270.00,229.59 294.00,235.72 318.00,218.09 342.00,208.76 366.00,210.57 390.00,206.40 414.00,212.23 438.00,216.44 462.00,214.25 486.00,224.11 510.00,221.25 534.00,225.08 558.00,224.72 582.00,222.18 606.00,230.77 630.00,229.18 654.00,234.59 678.00,226.65 702.00,217.30 726.00,217.68 750.00,216.80 774.00,209.77 798.00,214.72 822.00,221.18 846.00,233.86 870.00,230.80 894.00,242.67 918.00,247.54 942.00,244.52 966.00,250.85 990.00,260.86" fill="none" stroke="black" stroke-width="3" />
<line x1="764" y1="454" x2="800" y2="454" stroke="black" stroke-width="3" />
<text x="808" y="458" font-family="Arial, sans-serif" font-size="12">Decaying average (8-match half-life)</text>
<line x1="102.00" y1="476" x2="102.00" y2="480" stroke="#333" stroke-width="1" />
<text x="102.00" y="490" text-anchor="middle" font-family="Arial, sans-serif" font-size="11">1</text>
<line x1="318.00" y1="476" x2="318.00" y2="480" stroke="#333" stroke-width="1" />
<text x="318.00" y="490" text-anchor="middle" font-family="Arial, sans-serif" font-size="11">10</text>
<line x1="558.00" y1="476" x2="558.00" y2="480" stroke="#333" stroke-width="1" />
<text x="558.00" y="490" text-anchor="middle" font-family="Arial, sans-serif" font-size="11">20</text>
<line x1="798.00" y1="476" x2="798.00" y2="480" stroke="#333" stroke-width="1" />
<text x="798.00" y="490" text-anchor="middle" font-family="Arial, sans-serif" font-size="11">30</text>
<text x="548.0" y="506" text-anchor="middle" font-family="Arial, sans-serif" font-size="14">Match</text>
<text x="64" y="278.0" transform="rotate(-90 68 278.0)" text-anchor="middle" font-family="Arial, sans-serif" font-size="14">contexGD</text>
<g id="manager-stints"><rect x="92.00" y="48.00" width="456.00" height="14.00" rx="2" fill="#1f77b4" fill-opacity="0.9" /><line x1="92.00" y1="44.00" x2="92.00" y2="66.00" stroke="#1f77b4" stroke-width="1.5" /><text x="320.00" y="58.00" text-anchor="middle" font-family="Arial, sans-serif" font-size="10" fill="white" font-weight="700">Maresca</text><rect x="548.00" y="48.00" width="48.00" height="14.00" rx="2" fill="#d62728" fill-opacity="0.9" /><line x1="548.00" y1="44.00" x2="548.00" y2="66.00" stroke="#d62728" stroke-width="1.5" /><rect x="596.00" y="48.00" width="312.00" height="14.00" rx="2" fill="#2ca02c" fill-opacity="0.9" /><line x1="596.00" y1="44.00" x2="596.00" y2="66.00" stroke="#2ca02c" stroke-width="1.5" /><text x="752.00" y="58.00" text-anchor="middle" font-family="Arial, sans-serif" font-size="10" fill="white" font-weight="700">Rosenior</text><rect x="908.00" y="48.00" width="96.00" height="14.00" rx="2" fill="#ff7f0e" fill-opacity="0.9" /><line x1="908.00" y1="44.00" x2="908.00" y2="66.00" stroke="#ff7f0e" stroke-width="1.5" /><text x="956.00" y="58.00" text-anchor="middle" font-family="Arial, sans-serif" font-size="10" fill="white" font-weight="700">McFarlane</text></g></svg>