<svg xmlns="http://www.w3.org/2000/svg" width="1020" height="556" viewBox="0 0 1020 556">
<rect x="0" y="0" width="100%" height="100%" fill="white" />
<text x="510.0" y="36" text-anchor="middle" font-family="Arial, sans-serif" font-size="20">Nottm Forest contexGD by Match (Opponent-Adjusted)</text>
<line x1="92" y1="56" x2="92" y2="476" stroke="#333" stroke-width="1" />
<line x1="92" y1="476" x2="1004" y2="476" stroke="#333" stroke-width="1" />
<line x1="92" y1="476.00" x2="1004" y2="476.00" stroke="#cfcfcf" stroke-width="1" stroke-dasharray="3,3" />
<line x1="92" y1="434.00" x2="1004" y2="434.00" stroke="#cfcfcf" stroke-width="1" stroke-dasharray="3,3" />
<line x1="92" y1="392.00" x2="1004" y2="392.00" stroke="#cfcfcf" stroke-width="1" stroke-dasharray="3,3" />
<line x1="92" y1="350.00" x2="1004" y2="350.00" stroke="#cfcfcf" stroke-width="1" stroke-dasharray="3,3" />
<line x1="92" y1="308.00" x2="1004" y2="308.00" stroke="#cfcfcf" stroke-width="1" stroke-dasharray="3,3" />
<line x1="92" y1="266.00" x2="1004" y2="266.00" stroke="#666" stroke-width="1" stroke-dasharray="3,3" />
<line x1="92" y1="224.00" x2="1004" y2="224.00" stroke="#cfcfcf" stroke-width="1" stroke-dasharray="3,3" />
<line x1="92" y1="182.00" x2="1004" y2="182.00" stroke="#cfcfcf" stroke-width="1" stroke-dasharray="3,3" />
<line x1="92" y1="140.00" x2="1004" y2="140.00" stroke="#cfcfcf" stroke-width="1" stroke-dasharray="3,3" />
<line x1="92" y1="98.00" x2="1004" y2="98.00" stroke="#cfcfcf" stroke-width="1" stroke-dasharray="3,3" />
<line x1="92" y1="56.00" x2="1004" y2="56.00" stroke="#cfcfcf" stroke-width="1" stroke-dasharray="3,3" />
<line x1="88" y1="476.00" x2="92" y2="476.00" stroke="#333" stroke-width="1" />
<text x="86" y="479.00" text-anchor="end" font-family="Arial, sans-serif" font-size="11">-2.5</text>
<line x1="88" y1="434.00" x2="92" y2="434.00" stroke="#333" stroke-width="1" />
<text x="86" y="437.00" text-anchor="end" font-family="Arial, sans-serif" font-size="11">-2.0</text>
<line x1="88" y1="392.00" x2="92" y2="392.00" stroke="#333" stroke-width="1" />
<text x="86" y="395.00" text-anchor="end" font-family="Arial, sans-serif" font-size="11">-1.5</text>
<line x1="88" y1="350.00" x2="92" y2="350.00" stroke="#333" stroke-width="1" />
<text x="86" y="353.00" text-anchor="end" font-family="Arial, sans-serif" font-size="11">-1.0</text>
<line x1="88" y1="308.00" x2="92" y2="308.00" stroke="#333" stroke-width="1" />
<text x="86" y="311.00" text-anchor="end" font-family="Arial, sans-serif" font-size="11">-0.5</text>
<line x1="88" y1="266.00" x2="92" y2="266.00" stroke="#333" stroke-width="1" />
<text x="86" y="269.00" text-anchor="end" font-family="Arial, sans-serif" font-size="11">0</text>
<line x1="88" y1="224.00" x2="92" y2="224.00" stroke="#333" stroke-width="1" />
<text x="86" y="227.00" text-anchor="end" font-family="Arial, sans-serif" font-size="11">0.5</text>
<line x1="88" y1="182.00" x2="92" y2="182.00" stroke="#333" stroke-width="1" />
<text x="86" y="185.00" text-anchor="end" font-family="Arial, sans-serif" font-size="11">1.0</text>
<line x1="88" y1="140.00" x2="92" y2="140.00" stroke="#333" stroke-width="1" />
<text x="86" y="143.00" text-anchor="end" font-family="Arial, sans-serif" font-size="11">1.5</text>
<line x1="88" y1="98.00" x2="92" y2="98.00" stroke="#333" stroke-width="1" />
<text x="86" y="101.00" text-anchor="end" font-family="Arial, sans-serif" font-size="11">2.0</text>
<line x1="88" y1="56.00" x2="92" y2="56.00" stroke="#333" stroke-width="1" />
<text x="86" y="59.00" text-anchor="end" font-family="Arial, sans-serif" font-size="11">2.5</text>
<rect x="92" y="211.14" width="20" height="54.86" fill="#2f855a" />
<rect x="116" y="245.79" width="20" height="20.21" fill="#2f855a" />
<rect x="140" y="266.00" width="20" height="100.21" fill="#c53030" />
<rect x="164" y="266.00" width="20" height="43.19" fill="#c53030" />
<rect x="188" y="266.00" width="20" height="1.55" fill="#c53030" />
<rect x="212" y="266.00" width="20" height="32.09" fill="#c53030" />
<rect x="236" y="266.00" width="20" height="99.25" fill="#c53030" />
<rect x="260" y="266.00" width="20" height="42.50" fill="#c53030" />
<rect x="284" y="266.00" width="20" height="38.91" fill="#c53030" />
<rect x="308" y="245.32" width="20" height="20.68" fill="#2f855a" />
<rect x="332" y="259.19" width="20" height="6.81" fill="#2f855a" />
<rect x="356" y="249.34" width="20" height="16.66" fill="#2f855a" />
<rect x="380" y="266.00" width="20" height="81.19" fill="#c53030" />
<rect x="404" y="261.10" width="20" height="4.90" fill="#2f855a" />
<rect x="428" y="266.00" width="20" height="101.16" fill="#c53030" />
<rect x="452" y="262.61" width="20" height="3.39" fill="#2f855a" />
<rect x="476" y="260.29" width="20" height="5.71" fill="#2f855a" />
<rect x="500" y="266.00" width="20" height="42.94" fill="#c53030" />
<rect x="524" y="266.00" width="20" height="12.45" fill="#c53030" />
<rect x="548" y="266.00" width="20" height="115.56" fill="#c53030" />
<rect x="572" y="266.00" width="20" height="50.68" fill="#c53030" />
<rect x="596" y="266.00" width="20" height="63.88" fill="#c53030" />
<rect x="620" y="263.99" width="20" height="2.01" fill="#2f855a" />
<rect x="644" y="266.00" width="20" height="39.30" fill="#c53030" />
<rect x="668" y="266.00" width="20" height="102.57" fill="#c53030" />
<rect x="692" y="200.44" width="20" height="65.56" fill="#2f855a" />
<rect x="716" y="260.90" width="20" height="5.10" fill="#2f855a" />
<rect x="740" y="266.00" width="20" height="54.76" fill="#c53030" />
<rect x="764" y="266.00" width="20" height="49.94" fill="#c53030" />
<rect x="788" y="266.00" width="20" height="17.69" fill="#c53030" />
<rect x="812" y="266.00" width="20" height="4.54" fill="#c53030" />
<rect x="836" y="266.00" width="20" height="32.30" fill="#c53030" />
<rect x="860" y="266.00" width="20" height="66.23" fill="#c53030" />
<rect x="884" y="251.39" width="20" height="14.61" fill="#2f855a" />
<rect x="908" y="262.13" width="20" height="3.87" fill="#2f855a" />
<rect x="932" y="266.00" width="20" height="59.34" fill="#c53030" />
<rect x="956" y="266.00" width="20" height="154.43" fill="#c53030" />
<rect x="980" y="266.00" width="20" height="35.92" fill="#c53030" />
<polyline points="102.00,211.14 126.00,229.22 150.00,278.89 174.00,287.48 198.00,282.77 222.00,285.91 246.00,300.39 270.00,301.74 294.00,302.22 318.00,294.07 342.00,289.36 366.00,284.22 390.00,291.96 414.00,288.31 438.00,297.31 462.00,293.47 486.00,289.90 510.00,291.90 534.00,290.51 558.00,299.69 582.00,301.38 606.00,304.15 630.00,300.29 654.00,300.77 678.00,307.13 702.00,297.23 726.00,293.89 750.00,296.34 774.00,298.11 798.00,296.82 822.00,294.48 846.00,294.82 870.00,298.11 894.00,294.02 918.00,291.24 942.00,294.20 966.00,305.12 990.00,304.84" fill="none" stroke="black" stroke-width="3" />
<line x1="764" y1="454" x2="800" y2="454" stroke="black" stroke-width="3" />
<text x="808" y="458" font-family="Arial, sans-serif" font-size="12">Decaying average (8-match half-life)</text>
<line x1="102.00" y1="476" x2="102.00" y2="480" stroke="#333" stroke-width="1" />
<text x="102.00" y="490" text-anchor="middle" font-family="Arial, sans-serif" font-size="11">1</text>
<line x1="318.00" y1="476" x2="318.00" y2="480" stroke="#333" stroke-width="1" />
<text x="318.00" y="490" text-anchor="middle" font-family="Arial, sans-serif" font-size="11">10</text>
<line x1="558.00" y1="476" x2="558.00" y2="480" stroke="#333" stroke-width="1" />
<text x="558.00" y="490" text-anchor="middle" font-family="Arial, sans-serif" font-size="11">20</text>
<line x1="798.00" y1="476" x2="798.00" y2="480" stroke="#333" stroke-width="1" />
<text x="798.00" y="490" text-anchor="middle" font-family="Arial, sans-serif" font-size="11">30</text>
<text x="548.0" y="506" text-anchor="middle" font-family="Arial, sans-serif" font-size="14">Match</text>
<text x="64" y="278.0" transform="rotate(-90 68 278.0)" text-anchor="middle" font-family="Arial, sans-serif" font-size="14">contexGD</text>
<g id="manager-stints"><rect x="92.00" y="48.00" width="72.00" height="14.00" rx="2" fill="#1f77b4" fill-opacity="0.9" /><line x1="92.00" y1="44.00" x2="92.00" y2="66.00" stroke="#1f77b4" stroke-width="1.5" /><text x="128.00" y="58.00" text-anchor="middle" font-family="Arial, sans-serif" font-size="10" fill="white" font-weight="700">Nuno</text><rect x="164.00" y="48.00" width="120.00" height="14.00" rx="2" fill="#d62728" fill-opacity="0.9" /><line x1="164.00" y1="44.00" x2="164.00" y2="66.00" stroke="#d62728" stroke-width="1.5" /><text x="224.00" y="58.00" text-anchor="middle" font-family="Arial, sans-serif" font-size="10" fill="white" font-weight="700">Postecoglou</text><rect x="284.00" y="48.00" width="432.00" height="14.00" rx="2" fill="#2ca02c" fill-opacity="0.9" /><line x1="284.00" y1="44.00" x2="284.00" y2="66.00" stroke="#2ca02c" stroke-width="1.5" /><text x="500.00" y="58.00" text-anchor="middle" font-family="Arial, sans-serif" font-size="10" fill="white" font-weight="700">Dyche</text><rect x="716.00" y="48.00" width="288.00" height="14.00" rx="2" fill="#ff7f0e" fill-opacity="0.9" /><line x1="716.00" y1="44.00" x2="716.00" y2="66.00" stroke="#ff7f0e" stroke-width="1.5" /><text x="860.00" y="58.00" text-anchor="middle" font-family="Arial, sans-serif" font-size="10" fill="white" font-weight="700">Pereira</text></g></svg>