<svg xmlns="http://www.w3.org/2000/svg" width="1020" height="556" viewBox="0 0 1020 556">
<rect x="0" y="0" width="100%" height="100%" fill="white" />
<text x="510.0" y="36" text-anchor="middle" font-family="Arial, sans-serif" font-size="20">Tottenham contexGD by Match (Opponent-Adjusted)</text>
<line x1="92" y1="56" x2="92" y2="476" stroke="#333" stroke-width="1" />
<line x1="92" y1="476" x2="1004" y2="476" stroke="#333" stroke-width="1" />
<line x1="92" y1="476.00" x2="1004" y2="476.00" stroke="#cfcfcf" stroke-width="1" stroke-dasharray="3,3" />
<line x1="92" y1="434.00" x2="1004" y2="434.00" stroke="#cfcfcf" stroke-width="1" stroke-dasharray="3,3" />
<line x1="92" y1="392.00" x2="1004" y2="392.00" stroke="#cfcfcf" stroke-width="1" stroke-dasharray="3,3" />
<line x1="92" y1="350.00" x2="1004" y2="350.00" stroke="#cfcfcf" stroke-width="1" stroke-dasharray="3,3" />
<line x1="92" y1="308.00" x2="1004" y2="308.00" stroke="#cfcfcf" stroke-width="1" stroke-dasharray="3,3" />
<line x1="92" y1="266.00" x2="1004" y2="266.00" stroke="#666" stroke-width="1" stroke-dasharray="3,3" />
<line x1="92" y1="224.00" x2="1004" y2="224.00" stroke="#cfcfcf" stroke-width="1" stroke-dasharray="3,3" />
<line x1="92" y1="182.00" x2="1004" y2="182.00" stroke="#cfcfcf" stroke-width="1" stroke-dasharray="3,3" />
<line x1="92" y1="140.00" x2="1004" y2="140.00" stroke="#cfcfcf" stroke-width="1" stroke-dasharray="3,3" />
<line x1="92" y1="98.00" x2="1004" y2="98.00" stroke="#cfcfcf" stroke-width="1" stroke-dasharray="3,3" />
<line x1="92" y1="56.00" x2="1004" y2="56.00" stroke="#cfcfcf" stroke-width="1" stroke-dasharray="3,3" />
<line x1="88" y1="476.00" x2="92" y2="476.00" stroke="#333" stroke-width="1" />
<text x="86" y="479.00" text-anchor="end" font-family="Arial, sans-serif" font-size="11">-2.5</text>
<line x1="88" y1="434.00" x2="92" y2="434.00" stroke="#333" stroke-width="1" />
<text x="86" y="437.00" text-anchor="end" font-family="Arial, sans-serif" font-size="11">-2.0</text>
<line x1="88" y1="392.00" x2="92" y2="392.00" stroke="#333" stroke-width="1" />
<text x="86" y="395.00" text-anchor="end" font-family="Arial, sans-serif" font-size="11">-1.5</text>
<line x1="88" y1="350.00" x2="92" y2="350.00" stroke="#333" stroke-width="1" />
<text x="86" y="353.00" text-anchor="end" font-family="Arial, sans-serif" font-size="11">-1.0</text>
<line x1="88" y1="308.00" x2="92" y2="308.00" stroke="#333" stroke-width="1" />
<text x="86" y="311.00" text-anchor="end" font-family="Arial, sans-serif" font-size="11">-0.5</text>
<line x1="88" y1="266.00" x2="92" y2="266.00" stroke="#333" stroke-width="1" />
<text x="86" y="269.00" text-anchor="end" font-family="Arial, sans-serif" font-size="11">0</text>
<line x1="88" y1="224.00" x2="92" y2="224.00" stroke="#333" stroke-width="1" />
<text x="86" y="227.00" text-anchor="end" font-family="Arial, sans-serif" font-size="11">0.5</text>
<line x1="88" y1="182.00" x2="92" y2="182.00" stroke="#333" stroke-width="1" />
<text x="86" y="185.00" text-anchor="end" font-family="Arial, sans-serif" font-size="11">1.0</text>
<line x1="88" y1="140.00" x2="92" y2="140.00" stroke="#333" stroke-width="1" />
<text x="86" y="143.00" text-anchor="end" font-family="Arial, sans-serif" font-size="11">1.5</text>
<line x1="88" y1="98.00" x2="92" y2="98.00" stroke="#333" stroke-width="1" />
<text x="86" y="101.00" text-anchor="end" font-family="Arial, sans-serif" font-size="11">2.0</text>
<line x1="88" y1="56.00" x2="92" y2="56.00" stroke="#333" stroke-width="1" />
<text x="86" y="59.00" text-anchor="end" font-family="Arial, sans-serif" font-size="11">2.5</text>
<rect x="92" y="243.47" width="20" height="22.53" fill="#2f855a" />
<rect x="116" y="145.97" width="20" height="120.03" fill="#2f855a" />
<rect x="140" y="266.00" width="20" height="150.16" fill="#c53030" />
<rect x="164" y="227.70" width="20" height="38.30" fill="#2f855a" />
<rect x="188" y="226.19" width="20" height="39.81" fill="#2f855a" />
<rect x="212" y="266.00" width="20" height="103.03" fill="#c53030" />
<rect x="236" y="262.83" width="20" height="3.17" fill="#2f855a" />
<rect x="260" y="243.15" width="20" height="22.85" fill="#2f855a" />
<rect x="284" y="245.92" width="20" height="20.08" fill="#2f855a" />
<rect x="308" y="266.00" width="20" height="128.74" fill="#c53030" />
<rect x="332" y="253.34" width="20" height="12.66" fill="#2f855a" />
<rect x="356" y="266.00" width="20" height="79.68" fill="#c53030" />
<rect x="380" y="266.00" width="20" height="48.99" fill="#c53030" />
<rect x="404" y="266.00" width="20" height="18.96" fill="#c53030" />
<rect x="428" y="184.83" width="20" height="81.17" fill="#2f855a" />
<rect x="452" y="266.00" width="20" height="54.84" fill="#c53030" />
<rect x="476" y="247.60" width="20" height="18.40" fill="#2f855a" />
<rect x="500" y="266.00" width="20" height="46.57" fill="#c53030" />
<rect x="524" y="229.45" width="20" height="36.55" fill="#2f855a" />
<rect x="548" y="266.00" width="20" height="9.46" fill="#c53030" />
<rect x="572" y="223.66" width="20" height="42.34" fill="#2f855a" />
<rect x="596" y="266.00" width="20" height="44.76" fill="#c53030" />
<rect x="620" y="266.00" width="20" height="29.90" fill="#c53030" />
<rect x="644" y="261.07" width="20" height="4.93" fill="#2f855a" />
<rect x="668" y="266.00" width="20" height="51.38" fill="#c53030" />
<rect x="692" y="266.00" width="20" height="86.64" fill="#c53030" />
<rect x="716" y="266.00" width="20" height="122.15" fill="#c53030" />
<rect x="740" y="266.00" width="20" height="123.68" fill="#c53030" />
<rect x="764" y="266.00" width="20" height="62.81" fill="#c53030" />
<rect x="788" y="266.00" width="20" height="84.06" fill="#c53030" />
<rect x="812" y="266.00" width="20" height="58.27" fill="#c53030" />
<rect x="836" y="266.00" width="20" height="71.04" fill="#c53030" />
<rect x="860" y="244.90" width="20" height="21.10" fill="#2f855a" />
<rect x="884" y="255.55" width="20" height="10.45" fill="#2f855a" />
<rect x="908" y="180.97" width="20" height="85.03" fill="#2f855a" />
<rect x="932" y="266.00" width="20" height="7.29" fill="#c53030" />
<rect x="956" y="227.37" width="20" height="38.63" fill="#2f855a" />
<rect x="980" y="266.00" width="20" height="13.18" fill="#c53030" />
<polyline points="102.00,243.47 126.00,192.61 150.00,273.67 174.00,260.64 198.00,252.51 222.00,276.36 246.00,273.89 270.00,268.79 294.00,265.29 318.00,283.82 342.00,279.71 366.00,288.18 390.00,291.47 414.00,290.70 438.00,278.62 462.00,283.29 486.00,279.45 510.00,282.93 534.00,277.43 558.00,277.23 582.00,271.93 606.00,275.71 630.00,277.65 654.00,276.08 678.00,279.95 702.00,286.69 726.00,296.01 750.00,304.54 774.00,306.73 798.00,310.62 822.00,311.83 846.00,314.06 870.00,307.97 894.00,303.38 918.00,292.71 942.00,291.02 966.00,285.52 990.00,284.97" fill="none" stroke="black" stroke-width="3" />
<line x1="764" y1="454" x2="800" y2="454" stroke="black" stroke-width="3" />
<text x="808" y="458" font-family="Arial, sans-serif" font-size="12">Decaying average (8-match half-life)</text>
<line x1="102.00" y1="476" x2="102.00" y2="480" stroke="#333" stroke-width="1" />
<text x="102.00" y="490" text-anchor="middle" font-family="Arial, sans-serif" font-size="11">1</text>
<line x1="318.00" y1="476" x2="318.00" y2="480" stroke="#333" stroke-width="1" />
<text x="318.00" y="490" text-anchor="middle" font-family="Arial, sans-serif" font-size="11">10</text>
<line x1="558.00" y1="476" x2="558.00" y2="480" stroke="#333" stroke-width="1" />
<text x="558.00" y="490" text-anchor="middle" font-family="Arial, sans-serif" font-size="11">20</text>
<line x1="798.00" y1="476" x2="798.00" y2="480" stroke="#333" stroke-width="1" />
<text x="798.00" y="490" text-anchor="middle" font-family="Arial, sans-serif" font-size="11">30</text>
<text x="548.0" y="506" text-anchor="middle" font-family="Arial, sans-serif" font-size="14">Match</text>
<text x="64" y="278.0" transform="rotate(-90 68 278.0)" text-anchor="middle" font-family="Arial, sans-serif" font-size="14">contexGD</text>
<g id="manager-stints"><rect x="92.00" y="48.00" width="624.00" height="14.00" rx="2" fill="#1f77b4" fill-opacity="0.9" /><line x1="92.00" y1="44.00" x2="92.00" y2="66.00" stroke="#1f77b4" stroke-width="1.5" /><text x="404.00" y="58.00" text-anchor="middle" font-family="Arial, sans-serif" font-size="10" fill="white" font-weight="700">Frank</text><rect x="716.00" y="48.00" width="120.00" height="14.00" rx="2" fill="#d62728" fill-opacity="0.9" /><line x1="716.00" y1="44.00" x2="716.00" y2="66.00" stroke="#d62728" stroke-width="1.5" /><text x="776.00" y="58.00" text-anchor="middle" font-family="Arial, sans-serif" font-size="10" fill="white" font-weight="700">Tudor</text><rect x="836.00" y="48.00" width="168.00" height="14.00" rx="2" fill="#2ca02c" fill-opacity="0.9" /><line x1="836.00" y1="44.00" x2="836.00" y2="66.00" stroke="#2ca02c" stroke-width="1.5" /><text x="920.00" y="58.00" text-anchor="middle" font-family="Arial, sans-serif" font-size="10" fill="white" font-weight="700">De Zerbi</text></g></svg>