<svg xmlns="http://www.w3.org/2000/svg" width="1020" height="556" viewBox="0 0 1020 556">
<rect x="0" y="0" width="100%" height="100%" fill="white" />
<text x="510.0" y="36" text-anchor="middle" font-family="Arial, sans-serif" font-size="20">West Ham contexGD by Match (Opponent-Adjusted)</text>
<line x1="92" y1="56" x2="92" y2="476" stroke="#333" stroke-width="1" />
<line x1="92" y1="476" x2="1004" y2="476" stroke="#333" stroke-width="1" />
<line x1="92" y1="476.00" x2="1004" y2="476.00" stroke="#cfcfcf" stroke-width="1" stroke-dasharray="3,3" />
<line x1="92" y1="434.00" x2="1004" y2="434.00" stroke="#cfcfcf" stroke-width="1" stroke-dasharray="3,3" />
<line x1="92" y1="392.00" x2="1004" y2="392.00" stroke="#cfcfcf" stroke-width="1" stroke-dasharray="3,3" />
<line x1="92" y1="350.00" x2="1004" y2="350.00" stroke="#cfcfcf" stroke-width="1" stroke-dasharray="3,3" />
<line x1="92" y1="308.00" x2="1004" y2="308.00" stroke="#cfcfcf" stroke-width="1" stroke-dasharray="3,3" />
<line x1="92" y1="266.00" x2="1004" y2="266.00" stroke="#666" stroke-width="1" stroke-dasharray="3,3" />
<line x1="92" y1="224.00" x2="1004" y2="224.00" stroke="#cfcfcf" stroke-width="1" stroke-dasharray="3,3" />
<line x1="92" y1="182.00" x2="1004" y2="182.00" stroke="#cfcfcf" stroke-width="1" stroke-dasharray="3,3" />
<line x1="92" y1="140.00" x2="1004" y2="140.00" stroke="#cfcfcf" stroke-width="1" stroke-dasharray="3,3" />
<line x1="92" y1="98.00" x2="1004" y2="98.00" stroke="#cfcfcf" stroke-width="1" stroke-dasharray="3,3" />
<line x1="92" y1="56.00" x2="1004" y2="56.00" stroke="#cfcfcf" stroke-width="1" stroke-dasharray="3,3" />
<line x1="88" y1="476.00" x2="92" y2="476.00" stroke="#333" stroke-width="1" />
<text x="86" y="479.00" text-anchor="end" font-family="Arial, sans-serif" font-size="11">-2.5</text>
<line x1="88" y1="434.00" x2="92" y2="434.00" stroke="#333" stroke-width="1" />
<text x="86" y="437.00" text-anchor="end" font-family="Arial, sans-serif" font-size="11">-2.0</text>
<line x1="88" y1="392.00" x2="92" y2="392.00" stroke="#333" stroke-width="1" />
<text x="86" y="395.00" text-anchor="end" font-family="Arial, sans-serif" font-size="11">-1.5</text>
<line x1="88" y1="350.00" x2="92" y2="350.00" stroke="#333" stroke-width="1" />
<text x="86" y="353.00" text-anchor="end" font-family="Arial, sans-serif" font-size="11">-1.0</text>
<line x1="88" y1="308.00" x2="92" y2="308.00" stroke="#333" stroke-width="1" />
<text x="86" y="311.00" text-anchor="end" font-family="Arial, sans-serif" font-size="11">-0.5</text>
<line x1="88" y1="266.00" x2="92" y2="266.00" stroke="#333" stroke-width="1" />
<text x="86" y="269.00" text-anchor="end" font-family="Arial, sans-serif" font-size="11">0</text>
<line x1="88" y1="224.00" x2="92" y2="224.00" stroke="#333" stroke-width="1" />
<text x="86" y="227.00" text-anchor="end" font-family="Arial, sans-serif" font-size="11">0.5</text>
<line x1="88" y1="182.00" x2="92" y2="182.00" stroke="#333" stroke-width="1" />
<text x="86" y="185.00" text-anchor="end" font-family="Arial, sans-serif" font-size="11">1.0</text>
<line x1="88" y1="140.00" x2="92" y2="140.00" stroke="#333" stroke-width="1" />
<text x="86" y="143.00" text-anchor="end" font-family="Arial, sans-serif" font-size="11">1.5</text>
<line x1="88" y1="98.00" x2="92" y2="98.00" stroke="#333" stroke-width="1" />
<text x="86" y="101.00" text-anchor="end" font-family="Arial, sans-serif" font-size="11">2.0</text>
<line x1="88" y1="56.00" x2="92" y2="56.00" stroke="#333" stroke-width="1" />
<text x="86" y="59.00" text-anchor="end" font-family="Arial, sans-serif" font-size="11">2.5</text>
<rect x="92" y="266.00" width="20" height="0.52" fill="#c53030" />
<rect x="116" y="266.00" width="20" height="91.95" fill="#c53030" />
<rect x="140" y="253.99" width="20" height="12.01" fill="#2f855a" />
<rect x="164" y="266.00" width="20" height="111.80" fill="#c53030" />
<rect x="188" y="266.00" width="20" height="68.05" fill="#c53030" />
<rect x="212" y="266.00" width="20" height="44.64" fill="#c53030" />
<rect x="236" y="266.00" width="20" height="112.95" fill="#c53030" />
<rect x="260" y="266.00" width="20" height="201.90" fill="#c53030" />
<rect x="284" y="266.00" width="20" height="35.32" fill="#c53030" />
<rect x="308" y="266.00" width="20" height="20.34" fill="#c53030" />
<rect x="332" y="266.00" width="20" height="120.51" fill="#c53030" />
<rect x="356" y="266.00" width="20" height="120.54" fill="#c53030" />
<rect x="380" y="266.00" width="20" height="53.32" fill="#c53030" />
<rect x="404" y="261.66" width="20" height="4.34" fill="#2f855a" />
<rect x="428" y="266.00" width="20" height="24.86" fill="#c53030" />
<rect x="452" y="266.00" width="20" height="56.06" fill="#c53030" />
<rect x="476" y="266.00" width="20" height="136.92" fill="#c53030" />
<rect x="500" y="266.00" width="20" height="20.64" fill="#c53030" />
<rect x="524" y="266.00" width="20" height="16.61" fill="#c53030" />
<rect x="548" y="266.00" width="20" height="52.76" fill="#c53030" />
<rect x="572" y="266.00" width="20" height="20.41" fill="#c53030" />
<rect x="596" y="266.00" width="20" height="14.79" fill="#c53030" />
<rect x="620" y="248.43" width="20" height="17.57" fill="#2f855a" />
<rect x="644" y="246.04" width="20" height="19.96" fill="#2f855a" />
<rect x="668" y="266.00" width="20" height="59.68" fill="#c53030" />
<rect x="692" y="266.00" width="20" height="11.04" fill="#c53030" />
<rect x="716" y="223.35" width="20" height="42.65" fill="#2f855a" />
<rect x="740" y="266.00" width="20" height="54.98" fill="#c53030" />
<rect x="764" y="250.16" width="20" height="15.84" fill="#2f855a" />
<rect x="788" y="266.00" width="20" height="33.19" fill="#c53030" />
<rect x="812" y="266.00" width="20" height="113.24" fill="#c53030" />
<rect x="836" y="247.91" width="20" height="18.09" fill="#2f855a" />
<rect x="860" y="258.98" width="20" height="7.02" fill="#2f855a" />
<rect x="884" y="266.00" width="20" height="15.93" fill="#c53030" />
<rect x="908" y="266.00" width="20" height="64.06" fill="#c53030" />
<rect x="932" y="266.00" width="20" height="15.45" fill="#c53030" />
<rect x="956" y="266.00" width="20" height="96.37" fill="#c53030" />
<rect x="980" y="266.00" width="20" height="12.67" fill="#c53030" />
<polyline points="102.00,266.52 126.00,314.22 150.00,292.38 174.00,316.58 198.00,320.71 222.00,318.65 246.00,329.65 270.00,352.60 294.00,344.74 318.00,336.38 342.00,343.15 366.00,348.72 390.00,345.11 414.00,335.25 438.00,330.19 462.00,329.29 486.00,337.22 510.00,331.90 534.00,326.83 558.00,326.02 582.00,322.10 606.00,318.07 630.00,311.38 654.00,305.18 678.00,307.10 702.00,304.31 726.00,296.88 750.00,299.07 774.00,294.65 798.00,295.06 822.00,302.56 846.00,297.72 870.00,294.31 894.00,293.22 918.00,296.44 942.00,295.14 966.00,300.95 990.00,299.03" fill="none" stroke="black" stroke-width="3" />
<line x1="764" y1="454" x2="800" y2="454" stroke="black" stroke-width="3" />
<text x="808" y="458" font-family="Arial, sans-serif" font-size="12">Decaying average (8-match half-life)</text>
<line x1="102.00" y1="476" x2="102.00" y2="480" stroke="#333" stroke-width="1" />
<text x="102.00" y="490" text-anchor="middle" font-family="Arial, sans-serif" font-size="11">1</text>
<line x1="318.00" y1="476" x2="318.00" y2="480" stroke="#333" stroke-width="1" />
<text x="318.00" y="490" text-anchor="middle" font-family="Arial, sans-serif" font-size="11">10</text>
<line x1="558.00" y1="476" x2="558.00" y2="480" stroke="#333" stroke-width="1" />
<text x="558.00" y="490" text-anchor="middle" font-family="Arial, sans-serif" font-size="11">20</text>
<line x1="798.00" y1="476" x2="798.00" y2="480" stroke="#333" stroke-width="1" />
<text x="798.00" y="490" text-anchor="middle" font-family="Arial, sans-serif" font-size="11">30</text>
<text x="548.0" y="506" text-anchor="middle" font-family="Arial, sans-serif" font-size="14">Match</text>
<text x="64" y="278.0" transform="rotate(-90 68 278.0)" text-anchor="middle" font-family="Arial, sans-serif" font-size="14">contexGD</text>
<g id="manager-stints"><rect x="92.00" y="48.00" width="120.00" height="14.00" rx="2" fill="#1f77b4" fill-opacity="0.9" /><line x1="92.00" y1="44.00" x2="92.00" y2="66.00" stroke="#1f77b4" stroke-width="1.5" /><text x="152.00" y="58.00" text-anchor="middle" font-family="Arial, sans-serif" font-size="10" fill="white" font-weight="700">Potter</text><rect x="212.00" y="48.00" width="792.00" height="14.00" rx="2" fill="#d62728" fill-opacity="0.9" /><line x1="212.00" y1="44.00" x2="212.00" y2="66.00" stroke="#d62728" stroke-width="1.5" /><text x="608.00" y="58.00" text-anchor="middle" font-family="Arial, sans-serif" font-size="10" fill="white" font-weight="700">Nuno</text></g></svg>