<svg xmlns="http://www.w3.org/2000/svg" width="852" height="556" viewBox="0 0 852 556">
<rect x="0" y="0" width="100%" height="100%" fill="white"/>
<text x="426.0" y="36" text-anchor="middle" font-family="Arial, sans-serif" font-size="20">Tottenham contexGD by Match (Opponent-Adjusted)</text>
<line x1="92" y1="56" x2="92" y2="476" stroke="#333" stroke-width="1"/>
<line x1="92" y1="476" x2="836" y2="476" stroke="#333" stroke-width="1"/>
<line x1="92" y1="98.00" x2="836" y2="98.00" stroke="#cfcfcf" stroke-width="1" stroke-dasharray="3,3"/>
<line x1="92" y1="182.00" x2="836" y2="182.00" stroke="#cfcfcf" stroke-width="1" stroke-dasharray="3,3"/>
<line x1="92" y1="266.00" x2="836" y2="266.00" stroke="#666" stroke-width="1" stroke-dasharray="3,3"/>
<line x1="92" y1="350.00" x2="836" y2="350.00" stroke="#cfcfcf" stroke-width="1" stroke-dasharray="3,3"/>
<line x1="92" y1="434.00" x2="836" y2="434.00" stroke="#cfcfcf" stroke-width="1" stroke-dasharray="3,3"/>
<line x1="88" y1="476.00" x2="92" y2="476.00" stroke="#333" stroke-width="1"/>
<text x="86" y="479.00" text-anchor="end" font-family="Arial, sans-serif" font-size="11">-2.5</text>
<line x1="88" y1="434.00" x2="92" y2="434.00" stroke="#333" stroke-width="1"/>
<text x="86" y="437.00" text-anchor="end" font-family="Arial, sans-serif" font-size="11">-2.0</text>
<line x1="88" y1="392.00" x2="92" y2="392.00" stroke="#333" stroke-width="1"/>
<text x="86" y="395.00" text-anchor="end" font-family="Arial, sans-serif" font-size="11">-1.5</text>
<line x1="88" y1="350.00" x2="92" y2="350.00" stroke="#333" stroke-width="1"/>
<text x="86" y="353.00" text-anchor="end" font-family="Arial, sans-serif" font-size="11">-1.0</text>
<line x1="88" y1="308.00" x2="92" y2="308.00" stroke="#333" stroke-width="1"/>
<text x="86" y="311.00" text-anchor="end" font-family="Arial, sans-serif" font-size="11">-0.5</text>
<line x1="88" y1="266.00" x2="92" y2="266.00" stroke="#333" stroke-width="1"/>
<text x="86" y="269.00" text-anchor="end" font-family="Arial, sans-serif" font-size="11">0</text>
<line x1="88" y1="224.00" x2="92" y2="224.00" stroke="#333" stroke-width="1"/>
<text x="86" y="227.00" text-anchor="end" font-family="Arial, sans-serif" font-size="11">0.5</text>
<line x1="88" y1="182.00" x2="92" y2="182.00" stroke="#333" stroke-width="1"/>
<text x="86" y="185.00" text-anchor="end" font-family="Arial, sans-serif" font-size="11">1.0</text>
<line x1="88" y1="140.00" x2="92" y2="140.00" stroke="#333" stroke-width="1"/>
<text x="86" y="143.00" text-anchor="end" font-family="Arial, sans-serif" font-size="11">1.5</text>
<line x1="88" y1="98.00" x2="92" y2="98.00" stroke="#333" stroke-width="1"/>
<text x="86" y="101.00" text-anchor="end" font-family="Arial, sans-serif" font-size="11">2.0</text>
<line x1="88" y1="56.00" x2="92" y2="56.00" stroke="#333" stroke-width="1"/>
<text x="86" y="59.00" text-anchor="end" font-family="Arial, sans-serif" font-size="11">2.5</text>
<rect x="92" y="247.42" width="20" height="18.58" fill="#2f855a"/>
<rect x="116" y="133.32" width="20" height="132.68" fill="#2f855a"/>
<rect x="140" y="266.00" width="20" height="155.10" fill="#c53030"/>
<rect x="164" y="220.01" width="20" height="45.99" fill="#2f855a"/>
<rect x="188" y="223.11" width="20" height="42.89" fill="#2f855a"/>
<rect x="212" y="266.00" width="20" height="115.04" fill="#c53030"/>
<rect x="236" y="260.31" width="20" height="5.69" fill="#2f855a"/>
<rect x="260" y="238.92" width="20" height="27.08" fill="#2f855a"/>
<rect x="284" y="243.87" width="20" height="22.13" fill="#2f855a"/>
<rect x="308" y="266.00" width="20" height="121.79" fill="#c53030"/>
<rect x="332" y="249.35" width="20" height="16.65" fill="#2f855a"/>
<rect x="356" y="266.00" width="20" height="75.39" fill="#c53030"/>
<rect x="380" y="266.00" width="20" height="42.34" fill="#c53030"/>
<rect x="404" y="266.00" width="20" height="19.98" fill="#c53030"/>
<rect x="428" y="181.10" width="20" height="84.90" fill="#2f855a"/>
<rect x="452" y="266.00" width="20" height="57.44" fill="#c53030"/>
<rect x="476" y="241.20" width="20" height="24.80" fill="#2f855a"/>
<rect x="500" y="266.00" width="20" height="37.51" fill="#c53030"/>
<rect x="524" y="230.33" width="20" height="35.67" fill="#2f855a"/>
<rect x="548" y="266.00" width="20" height="18.08" fill="#c53030"/>
<rect x="572" y="222.24" width="20" height="43.76" fill="#2f855a"/>
<rect x="596" y="266.00" width="20" height="61.66" fill="#c53030"/>
<rect x="620" y="266.00" width="20" height="30.73" fill="#c53030"/>
<rect x="644" y="266.00" width="20" height="2.48" fill="#c53030"/>
<rect x="668" y="266.00" width="20" height="50.77" fill="#c53030"/>
<rect x="692" y="266.00" width="20" height="76.31" fill="#c53030"/>
<rect x="716" y="266.00" width="20" height="108.94" fill="#c53030"/>
<rect x="740" y="266.00" width="20" height="122.94" fill="#c53030"/>
<rect x="764" y="266.00" width="20" height="45.88" fill="#c53030"/>
<rect x="788" y="266.00" width="20" height="78.22" fill="#c53030"/>
<rect x="812" y="266.00" width="20" height="56.62" fill="#c53030"/>
<polyline points="102.00,247.42 126.00,190.37 150.00,267.28 174.00,255.46 198.00,248.99 222.00,271.00 246.00,269.47 270.00,265.65 294.00,263.23 318.00,275.69 342.00,275.88 366.00,296.69 390.00,285.41 414.00,292.01 438.00,287.81 462.00,282.05 486.00,280.14 510.00,286.60 534.00,285.24 558.00,274.87 582.00,272.16 606.00,270.79 630.00,269.63 654.00,267.88 678.00,281.44 702.00,283.33 726.00,296.70 750.00,305.25 774.00,313.40 798.00,319.42 822.00,329.46" fill="none" stroke="black" stroke-width="3"/>
<line x1="616" y1="76" x2="652" y2="76" stroke="black" stroke-width="3"/>
<text x="660" y="80" font-family="Arial, sans-serif" font-size="12">10-match rolling average</text>
<line x1="102.00" y1="476" x2="102.00" y2="480" stroke="#333" stroke-width="1"/>
<text x="102.00" y="490" text-anchor="middle" font-family="Arial, sans-serif" font-size="11">1</text>
<line x1="318.00" y1="476" x2="318.00" y2="480" stroke="#333" stroke-width="1"/>
<text x="318.00" y="490" text-anchor="middle" font-family="Arial, sans-serif" font-size="11">10</text>
<line x1="558.00" y1="476" x2="558.00" y2="480" stroke="#333" stroke-width="1"/>
<text x="558.00" y="490" text-anchor="middle" font-family="Arial, sans-serif" font-size="11">20</text>
<line x1="798.00" y1="476" x2="798.00" y2="480" stroke="#333" stroke-width="1"/>
<text x="798.00" y="490" text-anchor="middle" font-family="Arial, sans-serif" font-size="11">30</text>
<text x="464.0" y="506" text-anchor="middle" font-family="Arial, sans-serif" font-size="14">Match</text>
<text x="64" y="278.0" transform="rotate(-90 68 278.0)" text-anchor="middle" font-family="Arial, sans-serif" font-size="14">contexGD</text>
</svg>