<svg xmlns="http://www.w3.org/2000/svg" width="828" height="556" viewBox="0 0 828 556">
<rect x="0" y="0" width="100%" height="100%" fill="white"/>
<text x="414.0" y="36" text-anchor="middle" font-family="Arial, sans-serif" font-size="20">Aston Villa contexGD by Match (Opponent-Adjusted)</text>
<line x1="92" y1="56" x2="92" y2="476" stroke="#333" stroke-width="1"/>
<line x1="92" y1="476" x2="812" y2="476" stroke="#333" stroke-width="1"/>
<line x1="92" y1="98.00" x2="812" y2="98.00" stroke="#cfcfcf" stroke-width="1" stroke-dasharray="3,3"/>
<line x1="92" y1="182.00" x2="812" y2="182.00" stroke="#cfcfcf" stroke-width="1" stroke-dasharray="3,3"/>
<line x1="92" y1="266.00" x2="812" y2="266.00" stroke="#666" stroke-width="1" stroke-dasharray="3,3"/>
<line x1="92" y1="350.00" x2="812" y2="350.00" stroke="#cfcfcf" stroke-width="1" stroke-dasharray="3,3"/>
<line x1="92" y1="434.00" x2="812" y2="434.00" stroke="#cfcfcf" stroke-width="1" stroke-dasharray="3,3"/>
<line x1="88" y1="476.00" x2="92" y2="476.00" stroke="#333" stroke-width="1"/>
<text x="86" y="479.00" text-anchor="end" font-family="Arial, sans-serif" font-size="11">-2.5</text>
<line x1="88" y1="434.00" x2="92" y2="434.00" stroke="#333" stroke-width="1"/>
<text x="86" y="437.00" text-anchor="end" font-family="Arial, sans-serif" font-size="11">-2.0</text>
<line x1="88" y1="392.00" x2="92" y2="392.00" stroke="#333" stroke-width="1"/>
<text x="86" y="395.00" text-anchor="end" font-family="Arial, sans-serif" font-size="11">-1.5</text>
<line x1="88" y1="350.00" x2="92" y2="350.00" stroke="#333" stroke-width="1"/>
<text x="86" y="353.00" text-anchor="end" font-family="Arial, sans-serif" font-size="11">-1.0</text>
<line x1="88" y1="308.00" x2="92" y2="308.00" stroke="#333" stroke-width="1"/>
<text x="86" y="311.00" text-anchor="end" font-family="Arial, sans-serif" font-size="11">-0.5</text>
<line x1="88" y1="266.00" x2="92" y2="266.00" stroke="#333" stroke-width="1"/>
<text x="86" y="269.00" text-anchor="end" font-family="Arial, sans-serif" font-size="11">0</text>
<line x1="88" y1="224.00" x2="92" y2="224.00" stroke="#333" stroke-width="1"/>
<text x="86" y="227.00" text-anchor="end" font-family="Arial, sans-serif" font-size="11">0.5</text>
<line x1="88" y1="182.00" x2="92" y2="182.00" stroke="#333" stroke-width="1"/>
<text x="86" y="185.00" text-anchor="end" font-family="Arial, sans-serif" font-size="11">1.0</text>
<line x1="88" y1="140.00" x2="92" y2="140.00" stroke="#333" stroke-width="1"/>
<text x="86" y="143.00" text-anchor="end" font-family="Arial, sans-serif" font-size="11">1.5</text>
<line x1="88" y1="98.00" x2="92" y2="98.00" stroke="#333" stroke-width="1"/>
<text x="86" y="101.00" text-anchor="end" font-family="Arial, sans-serif" font-size="11">2.0</text>
<line x1="88" y1="56.00" x2="92" y2="56.00" stroke="#333" stroke-width="1"/>
<text x="86" y="59.00" text-anchor="end" font-family="Arial, sans-serif" font-size="11">2.5</text>
<rect x="92" y="266.00" width="20" height="38.84" fill="#c53030"/>
<rect x="116" y="197.45" width="20" height="68.55" fill="#2f855a"/>
<rect x="140" y="266.00" width="20" height="38.11" fill="#c53030"/>
<rect x="164" y="266.00" width="20" height="94.26" fill="#c53030"/>
<rect x="188" y="266.00" width="20" height="61.14" fill="#c53030"/>
<rect x="212" y="266.00" width="20" height="7.39" fill="#c53030"/>
<rect x="236" y="264.61" width="20" height="1.39" fill="#2f855a"/>
<rect x="260" y="266.00" width="20" height="55.85" fill="#c53030"/>
<rect x="284" y="207.88" width="20" height="58.12" fill="#2f855a"/>
<rect x="308" y="266.00" width="20" height="28.48" fill="#c53030"/>
<rect x="332" y="194.05" width="20" height="71.95" fill="#2f855a"/>
<rect x="356" y="266.00" width="20" height="12.89" fill="#c53030"/>
<rect x="380" y="266.00" width="20" height="45.16" fill="#c53030"/>
<rect x="404" y="220.38" width="20" height="45.62" fill="#2f855a"/>
<rect x="428" y="173.50" width="20" height="92.50" fill="#2f855a"/>
<rect x="452" y="255.79" width="20" height="10.21" fill="#2f855a"/>
<rect x="476" y="266.00" width="20" height="39.35" fill="#c53030"/>
<rect x="500" y="266.00" width="20" height="12.87" fill="#c53030"/>
<rect x="524" y="266.00" width="20" height="59.46" fill="#c53030"/>
<rect x="548" y="175.86" width="20" height="90.14" fill="#2f855a"/>
<rect x="572" y="207.16" width="20" height="58.84" fill="#2f855a"/>
<rect x="596" y="266.00" width="20" height="9.03" fill="#c53030"/>
<rect x="620" y="200.83" width="20" height="65.17" fill="#2f855a"/>
<rect x="644" y="210.19" width="20" height="55.81" fill="#2f855a"/>
<rect x="668" y="255.47" width="20" height="10.53" fill="#2f855a"/>
<rect x="692" y="266.00" width="20" height="11.58" fill="#c53030"/>
<rect x="716" y="266.00" width="20" height="11.28" fill="#c53030"/>
<rect x="740" y="266.00" width="20" height="5.90" fill="#c53030"/>
<rect x="764" y="266.00" width="20" height="68.90" fill="#c53030"/>
<rect x="788" y="261.67" width="20" height="4.33" fill="#2f855a"/>
<polyline points="102.00,304.84 126.00,251.14 150.00,268.80 174.00,291.66 198.00,298.76 222.00,294.53 246.00,290.26 270.00,294.21 294.00,284.61 318.00,285.60 342.00,274.52 366.00,282.67 390.00,283.37 414.00,269.38 438.00,254.02 462.00,252.26 486.00,256.33 510.00,252.04 534.00,263.79 558.00,251.93 582.00,253.24 606.00,252.86 630.00,241.82 654.00,240.80 678.00,249.00 702.00,251.18 726.00,248.37 750.00,247.67 774.00,248.62 798.00,257.20" fill="none" stroke="black" stroke-width="3"/>
<line x1="592" y1="76" x2="628" y2="76" stroke="black" stroke-width="3"/>
<text x="636" y="80" font-family="Arial, sans-serif" font-size="12">10-match rolling average</text>
<line x1="102.00" y1="476" x2="102.00" y2="480" stroke="#333" stroke-width="1"/>
<text x="102.00" y="490" text-anchor="middle" font-family="Arial, sans-serif" font-size="11">1</text>
<line x1="318.00" y1="476" x2="318.00" y2="480" stroke="#333" stroke-width="1"/>
<text x="318.00" y="490" text-anchor="middle" font-family="Arial, sans-serif" font-size="11">10</text>
<line x1="558.00" y1="476" x2="558.00" y2="480" stroke="#333" stroke-width="1"/>
<text x="558.00" y="490" text-anchor="middle" font-family="Arial, sans-serif" font-size="11">20</text>
<text x="452.0" y="506" text-anchor="middle" font-family="Arial, sans-serif" font-size="14">Match</text>
<text x="64" y="278.0" transform="rotate(-90 68 278.0)" text-anchor="middle" font-family="Arial, sans-serif" font-size="14">contexGD</text>
</svg>