<svg xmlns="http://www.w3.org/2000/svg" width="900" height="556" viewBox="0 0 900 556">
<rect x="0" y="0" width="100%" height="100%" fill="white"/>
<text x="450.0" y="36" text-anchor="middle" font-family="Arial, sans-serif" font-size="20">Newcastle United contexGD by Match (Opponent-Adjusted)</text>
<line x1="92" y1="56" x2="92" y2="476" stroke="#333" stroke-width="1"/>
<line x1="92" y1="476" x2="884" y2="476" stroke="#333" stroke-width="1"/>
<line x1="92" y1="476.00" x2="884" y2="476.00" stroke="#cfcfcf" stroke-width="1" stroke-dasharray="3,3"/>
<line x1="92" y1="434.00" x2="884" y2="434.00" stroke="#cfcfcf" stroke-width="1" stroke-dasharray="3,3"/>
<line x1="92" y1="392.00" x2="884" y2="392.00" stroke="#cfcfcf" stroke-width="1" stroke-dasharray="3,3"/>
<line x1="92" y1="350.00" x2="884" y2="350.00" stroke="#cfcfcf" stroke-width="1" stroke-dasharray="3,3"/>
<line x1="92" y1="308.00" x2="884" y2="308.00" stroke="#cfcfcf" stroke-width="1" stroke-dasharray="3,3"/>
<line x1="92" y1="266.00" x2="884" y2="266.00" stroke="#666" stroke-width="1" stroke-dasharray="3,3"/>
<line x1="92" y1="224.00" x2="884" y2="224.00" stroke="#cfcfcf" stroke-width="1" stroke-dasharray="3,3"/>
<line x1="92" y1="182.00" x2="884" y2="182.00" stroke="#cfcfcf" stroke-width="1" stroke-dasharray="3,3"/>
<line x1="92" y1="140.00" x2="884" y2="140.00" stroke="#cfcfcf" stroke-width="1" stroke-dasharray="3,3"/>
<line x1="92" y1="98.00" x2="884" y2="98.00" stroke="#cfcfcf" stroke-width="1" stroke-dasharray="3,3"/>
<line x1="92" y1="56.00" x2="884" y2="56.00" stroke="#cfcfcf" stroke-width="1" stroke-dasharray="3,3"/>
<line x1="88" y1="476.00" x2="92" y2="476.00" stroke="#333" stroke-width="1"/>
<text x="86" y="479.00" text-anchor="end" font-family="Arial, sans-serif" font-size="11">-2.5</text>
<line x1="88" y1="434.00" x2="92" y2="434.00" stroke="#333" stroke-width="1"/>
<text x="86" y="437.00" text-anchor="end" font-family="Arial, sans-serif" font-size="11">-2.0</text>
<line x1="88" y1="392.00" x2="92" y2="392.00" stroke="#333" stroke-width="1"/>
<text x="86" y="395.00" text-anchor="end" font-family="Arial, sans-serif" font-size="11">-1.5</text>
<line x1="88" y1="350.00" x2="92" y2="350.00" stroke="#333" stroke-width="1"/>
<text x="86" y="353.00" text-anchor="end" font-family="Arial, sans-serif" font-size="11">-1.0</text>
<line x1="88" y1="308.00" x2="92" y2="308.00" stroke="#333" stroke-width="1"/>
<text x="86" y="311.00" text-anchor="end" font-family="Arial, sans-serif" font-size="11">-0.5</text>
<line x1="88" y1="266.00" x2="92" y2="266.00" stroke="#333" stroke-width="1"/>
<text x="86" y="269.00" text-anchor="end" font-family="Arial, sans-serif" font-size="11">0</text>
<line x1="88" y1="224.00" x2="92" y2="224.00" stroke="#333" stroke-width="1"/>
<text x="86" y="227.00" text-anchor="end" font-family="Arial, sans-serif" font-size="11">0.5</text>
<line x1="88" y1="182.00" x2="92" y2="182.00" stroke="#333" stroke-width="1"/>
<text x="86" y="185.00" text-anchor="end" font-family="Arial, sans-serif" font-size="11">1.0</text>
<line x1="88" y1="140.00" x2="92" y2="140.00" stroke="#333" stroke-width="1"/>
<text x="86" y="143.00" text-anchor="end" font-family="Arial, sans-serif" font-size="11">1.5</text>
<line x1="88" y1="98.00" x2="92" y2="98.00" stroke="#333" stroke-width="1"/>
<text x="86" y="101.00" text-anchor="end" font-family="Arial, sans-serif" font-size="11">2.0</text>
<line x1="88" y1="56.00" x2="92" y2="56.00" stroke="#333" stroke-width="1"/>
<text x="86" y="59.00" text-anchor="end" font-family="Arial, sans-serif" font-size="11">2.5</text>
<rect x="92" y="207.83" width="20" height="58.17" fill="#2f855a"/>
<rect x="116" y="227.69" width="20" height="38.31" fill="#2f855a"/>
<rect x="140" y="251.93" width="20" height="14.07" fill="#2f855a"/>
<rect x="164" y="266.00" width="20" height="9.85" fill="#c53030"/>
<rect x="188" y="260.17" width="20" height="5.83" fill="#2f855a"/>
<rect x="212" y="266.00" width="20" height="26.42" fill="#c53030"/>
<rect x="236" y="179.50" width="20" height="86.50" fill="#2f855a"/>
<rect x="260" y="232.72" width="20" height="33.28" fill="#2f855a"/>
<rect x="284" y="213.09" width="20" height="52.91" fill="#2f855a"/>
<rect x="308" y="266.00" width="20" height="13.52" fill="#c53030"/>
<rect x="332" y="266.00" width="20" height="17.70" fill="#c53030"/>
<rect x="356" y="263.81" width="20" height="2.19" fill="#2f855a"/>
<rect x="380" y="207.85" width="20" height="58.15" fill="#2f855a"/>
<rect x="404" y="262.50" width="20" height="3.50" fill="#2f855a"/>
<rect x="428" y="266.00" width="20" height="11.12" fill="#c53030"/>
<rect x="452" y="266.00" width="20" height="49.62" fill="#c53030"/>
<rect x="476" y="169.67" width="20" height="96.33" fill="#2f855a"/>
<rect x="500" y="184.60" width="20" height="81.40" fill="#2f855a"/>
<rect x="524" y="239.04" width="20" height="26.96" fill="#2f855a"/>
<rect x="548" y="228.67" width="20" height="37.33" fill="#2f855a"/>
<rect x="572" y="266.00" width="20" height="1.28" fill="#c53030"/>
<rect x="596" y="255.24" width="20" height="10.76" fill="#2f855a"/>
<rect x="620" y="266.00" width="20" height="47.24" fill="#c53030"/>
<rect x="644" y="266.00" width="20" height="88.05" fill="#c53030"/>
<rect x="668" y="266.00" width="20" height="39.00" fill="#c53030"/>
<rect x="692" y="206.49" width="20" height="59.51" fill="#2f855a"/>
<rect x="716" y="266.00" width="20" height="32.37" fill="#c53030"/>
<rect x="740" y="266.00" width="20" height="36.40" fill="#c53030"/>
<rect x="764" y="202.14" width="20" height="63.86" fill="#2f855a"/>
<rect x="788" y="221.48" width="20" height="44.52" fill="#2f855a"/>
<rect x="812" y="266.00" width="20" height="69.56" fill="#c53030"/>
<rect x="836" y="255.72" width="20" height="10.28" fill="#2f855a"/>
<rect x="860" y="266.00" width="20" height="49.52" fill="#c53030"/>
<polyline points="102.00,207.83 126.00,209.48 150.00,213.00 174.00,218.22 198.00,221.70 222.00,227.57 246.00,223.58 270.00,224.34 294.00,223.41 318.00,228.06 342.00,232.68 366.00,235.26 390.00,232.99 414.00,235.44 438.00,238.90 462.00,245.27 486.00,238.99 510.00,234.48 534.00,234.86 558.00,234.34 582.00,237.08 606.00,238.58 630.00,244.78 654.00,253.85 678.00,258.09 702.00,253.81 726.00,257.51 750.00,261.24 774.00,256.33 798.00,253.44 822.00,260.25 846.00,259.88 870.00,264.50" fill="none" stroke="black" stroke-width="3"/>
<line x1="644" y1="76" x2="680" y2="76" stroke="black" stroke-width="3"/>
<text x="688" y="80" font-family="Arial, sans-serif" font-size="12">Decaying average (8-match half-life)</text>
<line x1="102.00" y1="476" x2="102.00" y2="480" stroke="#333" stroke-width="1"/>
<text x="102.00" y="490" text-anchor="middle" font-family="Arial, sans-serif" font-size="11">1</text>
<line x1="318.00" y1="476" x2="318.00" y2="480" stroke="#333" stroke-width="1"/>
<text x="318.00" y="490" text-anchor="middle" font-family="Arial, sans-serif" font-size="11">10</text>
<line x1="558.00" y1="476" x2="558.00" y2="480" stroke="#333" stroke-width="1"/>
<text x="558.00" y="490" text-anchor="middle" font-family="Arial, sans-serif" font-size="11">20</text>
<line x1="798.00" y1="476" x2="798.00" y2="480" stroke="#333" stroke-width="1"/>
<text x="798.00" y="490" text-anchor="middle" font-family="Arial, sans-serif" font-size="11">30</text>
<text x="488.0" y="506" text-anchor="middle" font-family="Arial, sans-serif" font-size="14">Match</text>
<text x="64" y="278.0" transform="rotate(-90 68 278.0)" text-anchor="middle" font-family="Arial, sans-serif" font-size="14">contexGD</text>
</svg>