<svg xmlns="http://www.w3.org/2000/svg" width="1020" height="556" viewBox="0 0 1020 556">
<rect x="0" y="0" width="100%" height="100%" fill="white" />
<text x="510.0" y="36" text-anchor="middle" font-family="Arial, sans-serif" font-size="20">Man Utd contexGD by Match (Opponent-Adjusted)</text>
<line x1="92" y1="56" x2="92" y2="476" stroke="#333" stroke-width="1" />
<line x1="92" y1="476" x2="1004" y2="476" stroke="#333" stroke-width="1" />
<line x1="92" y1="476.00" x2="1004" y2="476.00" stroke="#cfcfcf" stroke-width="1" stroke-dasharray="3,3" />
<line x1="92" y1="434.00" x2="1004" y2="434.00" stroke="#cfcfcf" stroke-width="1" stroke-dasharray="3,3" />
<line x1="92" y1="392.00" x2="1004" y2="392.00" stroke="#cfcfcf" stroke-width="1" stroke-dasharray="3,3" />
<line x1="92" y1="350.00" x2="1004" y2="350.00" stroke="#cfcfcf" stroke-width="1" stroke-dasharray="3,3" />
<line x1="92" y1="308.00" x2="1004" y2="308.00" stroke="#cfcfcf" stroke-width="1" stroke-dasharray="3,3" />
<line x1="92" y1="266.00" x2="1004" y2="266.00" stroke="#666" stroke-width="1" stroke-dasharray="3,3" />
<line x1="92" y1="224.00" x2="1004" y2="224.00" stroke="#cfcfcf" stroke-width="1" stroke-dasharray="3,3" />
<line x1="92" y1="182.00" x2="1004" y2="182.00" stroke="#cfcfcf" stroke-width="1" stroke-dasharray="3,3" />
<line x1="92" y1="140.00" x2="1004" y2="140.00" stroke="#cfcfcf" stroke-width="1" stroke-dasharray="3,3" />
<line x1="92" y1="98.00" x2="1004" y2="98.00" stroke="#cfcfcf" stroke-width="1" stroke-dasharray="3,3" />
<line x1="92" y1="56.00" x2="1004" y2="56.00" stroke="#cfcfcf" stroke-width="1" stroke-dasharray="3,3" />
<line x1="88" y1="476.00" x2="92" y2="476.00" stroke="#333" stroke-width="1" />
<text x="86" y="479.00" text-anchor="end" font-family="Arial, sans-serif" font-size="11">-2.5</text>
<line x1="88" y1="434.00" x2="92" y2="434.00" stroke="#333" stroke-width="1" />
<text x="86" y="437.00" text-anchor="end" font-family="Arial, sans-serif" font-size="11">-2.0</text>
<line x1="88" y1="392.00" x2="92" y2="392.00" stroke="#333" stroke-width="1" />
<text x="86" y="395.00" text-anchor="end" font-family="Arial, sans-serif" font-size="11">-1.5</text>
<line x1="88" y1="350.00" x2="92" y2="350.00" stroke="#333" stroke-width="1" />
<text x="86" y="353.00" text-anchor="end" font-family="Arial, sans-serif" font-size="11">-1.0</text>
<line x1="88" y1="308.00" x2="92" y2="308.00" stroke="#333" stroke-width="1" />
<text x="86" y="311.00" text-anchor="end" font-family="Arial, sans-serif" font-size="11">-0.5</text>
<line x1="88" y1="266.00" x2="92" y2="266.00" stroke="#333" stroke-width="1" />
<text x="86" y="269.00" text-anchor="end" font-family="Arial, sans-serif" font-size="11">0</text>
<line x1="88" y1="224.00" x2="92" y2="224.00" stroke="#333" stroke-width="1" />
<text x="86" y="227.00" text-anchor="end" font-family="Arial, sans-serif" font-size="11">0.5</text>
<line x1="88" y1="182.00" x2="92" y2="182.00" stroke="#333" stroke-width="1" />
<text x="86" y="185.00" text-anchor="end" font-family="Arial, sans-serif" font-size="11">1.0</text>
<line x1="88" y1="140.00" x2="92" y2="140.00" stroke="#333" stroke-width="1" />
<text x="86" y="143.00" text-anchor="end" font-family="Arial, sans-serif" font-size="11">1.5</text>
<line x1="88" y1="98.00" x2="92" y2="98.00" stroke="#333" stroke-width="1" />
<text x="86" y="101.00" text-anchor="end" font-family="Arial, sans-serif" font-size="11">2.0</text>
<line x1="88" y1="56.00" x2="92" y2="56.00" stroke="#333" stroke-width="1" />
<text x="86" y="59.00" text-anchor="end" font-family="Arial, sans-serif" font-size="11">2.5</text>
<rect x="92" y="186.36" width="20" height="79.64" fill="#2f855a" />
<rect x="116" y="242.27" width="20" height="23.73" fill="#2f855a" />
<rect x="140" y="216.68" width="20" height="49.32" fill="#2f855a" />
<rect x="164" y="239.79" width="20" height="26.21" fill="#2f855a" />
<rect x="188" y="229.09" width="20" height="36.91" fill="#2f855a" />
<rect x="212" y="266.00" width="20" height="57.53" fill="#c53030" />
<rect x="236" y="221.66" width="20" height="44.34" fill="#2f855a" />
<rect x="260" y="204.74" width="20" height="61.26" fill="#2f855a" />
<rect x="284" y="216.91" width="20" height="49.09" fill="#2f855a" />
<rect x="308" y="266.00" width="20" height="22.79" fill="#c53030" />
<rect x="332" y="266.00" width="20" height="5.49" fill="#c53030" />
<rect x="356" y="266.00" width="20" height="1.25" fill="#c53030" />
<rect x="380" y="266.00" width="20" height="0.17" fill="#c53030" />
<rect x="404" y="266.00" width="20" height="25.52" fill="#c53030" />
<rect x="428" y="106.48" width="20" height="159.52" fill="#2f855a" />
<rect x="452" y="189.91" width="20" height="76.09" fill="#2f855a" />
<rect x="476" y="189.68" width="20" height="76.32" fill="#2f855a" />
<rect x="500" y="266.00" width="20" height="45.24" fill="#c53030" />
<rect x="524" y="266.00" width="20" height="51.41" fill="#c53030" />
<rect x="548" y="243.34" width="20" height="22.66" fill="#2f855a" />
<rect x="572" y="178.49" width="20" height="87.51" fill="#2f855a" />
<rect x="596" y="182.29" width="20" height="83.71" fill="#2f855a" />
<rect x="620" y="218.92" width="20" height="47.08" fill="#2f855a" />
<rect x="644" y="234.52" width="20" height="31.48" fill="#2f855a" />
<rect x="668" y="215.29" width="20" height="50.71" fill="#2f855a" />
<rect x="692" y="258.11" width="20" height="7.89" fill="#2f855a" />
<rect x="716" y="250.78" width="20" height="15.22" fill="#2f855a" />
<rect x="740" y="266.00" width="20" height="12.50" fill="#c53030" />
<rect x="764" y="266.00" width="20" height="33.89" fill="#c53030" />
<rect x="788" y="237.67" width="20" height="28.33" fill="#2f855a" />
<rect x="812" y="200.95" width="20" height="65.05" fill="#2f855a" />
<rect x="836" y="266.00" width="20" height="39.87" fill="#c53030" />
<rect x="860" y="266.00" width="20" height="26.10" fill="#c53030" />
<rect x="884" y="249.23" width="20" height="16.77" fill="#2f855a" />
<rect x="908" y="166.36" width="20" height="99.64" fill="#2f855a" />
<rect x="932" y="266.00" width="20" height="33.41" fill="#c53030" />
<rect x="956" y="116.24" width="20" height="149.76" fill="#2f855a" />
<rect x="980" y="159.31" width="20" height="106.69" fill="#2f855a" />
<polyline points="102.00,186.36 126.00,215.52 150.00,215.94 174.00,222.70 198.00,224.21 222.00,244.54 246.00,240.37 270.00,234.45 294.00,231.76 318.00,239.93 342.00,244.19 366.00,247.16 390.00,249.49 414.00,254.46 438.00,237.57 462.00,232.30 486.00,227.71 510.00,236.49 534.00,244.81 558.00,244.66 582.00,238.10 606.00,232.66 630.00,231.34 654.00,231.64 678.00,230.11 702.00,232.71 726.00,234.37 750.00,238.38 774.00,243.94 798.00,243.38 822.00,239.60 846.00,245.47 870.00,249.57 894.00,249.54 918.00,242.29 942.00,247.25 966.00,235.92 990.00,229.31" fill="none" stroke="black" stroke-width="3" />
<line x1="764" y1="454" x2="800" y2="454" stroke="black" stroke-width="3" />
<text x="808" y="458" font-family="Arial, sans-serif" font-size="12">Decaying average (8-match half-life)</text>
<line x1="102.00" y1="476" x2="102.00" y2="480" stroke="#333" stroke-width="1" />
<text x="102.00" y="490" text-anchor="middle" font-family="Arial, sans-serif" font-size="11">1</text>
<line x1="318.00" y1="476" x2="318.00" y2="480" stroke="#333" stroke-width="1" />
<text x="318.00" y="490" text-anchor="middle" font-family="Arial, sans-serif" font-size="11">10</text>
<line x1="558.00" y1="476" x2="558.00" y2="480" stroke="#333" stroke-width="1" />
<text x="558.00" y="490" text-anchor="middle" font-family="Arial, sans-serif" font-size="11">20</text>
<line x1="798.00" y1="476" x2="798.00" y2="480" stroke="#333" stroke-width="1" />
<text x="798.00" y="490" text-anchor="middle" font-family="Arial, sans-serif" font-size="11">30</text>
<text x="548.0" y="506" text-anchor="middle" font-family="Arial, sans-serif" font-size="14">Match</text>
<text x="64" y="278.0" transform="rotate(-90 68 278.0)" text-anchor="middle" font-family="Arial, sans-serif" font-size="14">contexGD</text>
<g id="manager-stints"><rect x="92.00" y="48.00" width="480.00" height="14.00" rx="2" fill="#1f77b4" fill-opacity="0.9" /><line x1="92.00" y1="44.00" x2="92.00" y2="66.00" stroke="#1f77b4" stroke-width="1.5" /><text x="332.00" y="58.00" text-anchor="middle" font-family="Arial, sans-serif" font-size="10" fill="white" font-weight="700">Amorim</text><rect x="572.00" y="48.00" width="24.00" height="14.00" rx="2" fill="#d62728" fill-opacity="0.9" /><line x1="572.00" y1="44.00" x2="572.00" y2="66.00" stroke="#d62728" stroke-width="1.5" /><rect x="596.00" y="48.00" width="408.00" height="14.00" rx="2" fill="#2ca02c" fill-opacity="0.9" /><line x1="596.00" y1="44.00" x2="596.00" y2="66.00" stroke="#2ca02c" stroke-width="1.5" /><text x="800.00" y="58.00" text-anchor="middle" font-family="Arial, sans-serif" font-size="10" fill="white" font-weight="700">Carrick</text></g></svg>